<?xml version="1.0" encoding="utf-8"?>
<!-- Generator: Adobe Illustrator 16.0.0, SVG Export Plug-In . SVG Version: 6.00 Build 0)  -->
<!DOCTYPE svg PUBLIC "-//W3C//DTD SVG 1.1//EN" "http://www.w3.org/Graphics/SVG/1.1/DTD/svg11.dtd">
<svg version="1.1" id="Layer_1" xmlns="http://www.w3.org/2000/svg" xmlns:xlink="http://www.w3.org/1999/xlink" x="0px" y="0px"
	 width="46.395px" height="46.457px" viewBox="0 0 46.395 46.457" enable-background="new 0 0 46.395 46.457" xml:space="preserve">
<g>
	<g>
		<path fill="#FFFFFF" d="M27.274,20.103H19.12l2.547-7.131c0.229-0.645,0.844-1.079,1.528-1.079c0.686,0,1.302,0.435,1.531,1.08
			L27.274,20.103z M20.212,19.333h5.971l-2.18-6.103c-0.121-0.341-0.445-0.568-0.808-0.568c-0.358,0-0.686,0.229-0.805,0.568
			L20.212,19.333z"/>
	</g>
	<g>
		<path fill="#FFFFFF" d="M30.374,28.782H16.021l2.046-5.729h10.262L30.374,28.782z M17.111,28.014h12.172l-1.496-4.19h-9.179
			L17.111,28.014z"/>
	</g>
	<g>
		<path fill="#FFFFFF" d="M31.876,32.502H14.518c-0.896,0-1.624-0.729-1.624-1.624s0.729-1.625,1.624-1.625h17.358
			c0.896,0,1.625,0.729,1.625,1.625S32.772,32.502,31.876,32.502z M14.518,30.021c-0.472,0-0.854,0.384-0.854,0.855
			c0,0.471,0.384,0.855,0.854,0.855h17.358c0.473,0,0.854-0.385,0.854-0.855c0-0.473-0.383-0.855-0.854-0.855H14.518z"/>
	</g>
</g>
<g>
	<path fill="#FFFFFF" d="M4.777,37.26C1.652,33.172,0,28.311,0,23.197C0,10.406,10.406,0,23.197,0c5.109,0,9.973,1.652,14.064,4.777
		l-0.607,0.795C32.738,2.581,28.085,1,23.197,1C10.958,1,1,10.958,1,23.197c0,4.891,1.581,9.544,4.57,13.455L4.777,37.26z"/>
</g>
<g>
	<path fill="#FFFFFF" d="M23.199,46.457c-0.001,0-0.001,0-0.003,0c-5.271,0-10.247-1.77-14.39-5.055l0.621-0.769
		c3.964,3.146,8.726,4.822,13.769,4.822c0,0,0.002,0,0.003,0c5.929,0,11.502-2.34,15.694-6.532
		c4.193-4.191,6.501-9.781,6.501-15.712c0-5.042-1.662-9.811-4.808-13.777L41.37,8.81c3.287,4.145,5.023,9.119,5.023,14.389
		c0,6.195-2.413,12.052-6.794,16.434C35.22,44.014,29.395,46.457,23.199,46.457z"/>
</g>
<path fill="none" stroke="#F6851F" stroke-miterlimit="10" d="M36.957,5.175"/>
<path fill="none" stroke="#F6851F" stroke-miterlimit="10" d="M36.957,5.175"/>
</svg>
