<?xml version="1.0" encoding="utf-8"?>
<!-- Generator: Adobe Illustrator 16.0.0, SVG Export Plug-In . SVG Version: 6.00 Build 0)  -->
<!DOCTYPE svg PUBLIC "-//W3C//DTD SVG 1.1//EN" "http://www.w3.org/Graphics/SVG/1.1/DTD/svg11.dtd">
<svg version="1.1" id="Layer_1" xmlns="http://www.w3.org/2000/svg" xmlns:xlink="http://www.w3.org/1999/xlink" x="0px" y="0px"
	 width="46.395px" height="46.352px" viewBox="0 0 46.395 46.352" enable-background="new 0 0 46.395 46.352" xml:space="preserve">
<g>
	<g>
		<g>
			<path fill="#FFFFFF" d="M4.778,37.26C1.652,33.173,0,28.311,0,23.198C0,10.406,10.406,0,23.197,0
				c5.109,0,9.973,1.651,14.062,4.776l-0.607,0.796C32.738,2.581,28.085,1,23.197,1C10.958,1,1,10.958,1,23.198
				c0,4.892,1.581,9.544,4.571,13.454L4.778,37.26z"/>
		</g>
		<g>
			<path fill="#FFFFFF" d="M23.199,46.352c-0.001,0-0.001,0-0.003,0c-5.271,0-10.246-1.716-14.391-5.002l0.621-0.794
				c3.965,3.146,8.727,4.796,13.77,4.796c0,0,0.002,0,0.003,0c5.929,0,11.502-2.287,15.693-6.479
				c4.192-4.192,6.501-9.756,6.501-15.687c0-5.042-1.662-9.797-4.808-13.764l0.783-0.619c3.287,4.146,5.023,9.123,5.023,14.392
				c0,6.197-2.413,12-6.794,16.383C35.22,43.959,29.395,46.352,23.199,46.352z"/>
		</g>
		<path fill="none" stroke="#8B4C9E" stroke-miterlimit="10" d="M36.956,5.175"/>
		<path fill="none" stroke="#8B4C9E" stroke-miterlimit="10" d="M36.956,5.175"/>
	</g>
</g>
<g>
	<g>
		<g id="Layer_1_1_">
			<g>
				<path fill="#FFFFFF" d="M20.241,19.966l-1.426-1.347c0.166-0.302,0.27-0.644,0.27-1.012c0-1.167-0.945-2.111-2.113-2.111
					c-1.167,0-2.114,0.943-2.114,2.111s0.947,2.113,2.114,2.113c0.412,0,0.792-0.122,1.117-0.326l1.423,1.346
					C19.728,20.457,19.97,20.196,20.241,19.966z"/>
				<path fill="#FFFFFF" d="M26.267,19.798l1.895-3.187c0.187,0.054,0.38,0.092,0.582,0.092c1.17,0,2.114-0.946,2.114-2.113
					s-0.944-2.112-2.114-2.112c-1.167,0-2.112,0.945-2.112,2.112c0,0.58,0.234,1.103,0.611,1.485l-1.888,3.177
					C25.679,19.399,25.984,19.583,26.267,19.798z"/>
				<path fill="#FFFFFF" d="M32.796,22.465c-0.909,0-1.68,0.577-1.979,1.383l-2.63-0.26c0,0.02,0.003,0.039,0.003,0.059
					c0,0.344-0.038,0.679-0.105,1.001l2.629,0.261c0.159,1.009,1.027,1.781,2.082,1.781c1.167,0,2.111-0.944,2.111-2.111
					S33.963,22.465,32.796,22.465z"/>
				<path fill="#FFFFFF" d="M25.538,30.772l-0.588-2.568c-0.332,0.114-0.679,0.197-1.038,0.239l0.589,2.569
					c-0.675,0.354-1.142,1.052-1.142,1.866c0,1.168,0.944,2.111,2.114,2.111c1.167,0,2.111-0.944,2.111-2.111
					C27.588,31.734,26.675,30.807,25.538,30.772z"/>
				<path fill="#FFFFFF" d="M18.642,24.666l-3.273,1.097c-0.378-0.577-1.028-0.96-1.769-0.96c-1.168,0-2.112,0.945-2.112,2.113
					s0.944,2.112,2.112,2.112c1.166,0,2.114-0.944,2.114-2.112c0-0.049-0.012-0.094-0.016-0.143l3.284-1.101
					C18.835,25.355,18.718,25.019,18.642,24.666z"/>
				<g>
					<path fill="#FFFFFF" d="M23.362,27.77c-2.273,0-4.124-1.85-4.124-4.123s1.851-4.124,4.124-4.124
						c2.272,0,4.122,1.851,4.122,4.124S25.635,27.77,23.362,27.77z M23.362,20.523c-1.723,0-3.124,1.401-3.124,3.124
						s1.401,3.123,3.124,3.123s3.122-1.4,3.122-3.123S25.084,20.523,23.362,20.523z"/>
				</g>
			</g>
		</g>
	</g>
</g>
</svg>
