<?xml version="1.0" encoding="utf-8"?>
<!-- Generator: Adobe Illustrator 16.0.0, SVG Export Plug-In . SVG Version: 6.00 Build 0)  -->
<!DOCTYPE svg PUBLIC "-//W3C//DTD SVG 1.1//EN" "http://www.w3.org/Graphics/SVG/1.1/DTD/svg11.dtd">
<svg version="1.1" id="Layer_1" xmlns="http://www.w3.org/2000/svg" xmlns:xlink="http://www.w3.org/1999/xlink" x="0px" y="0px"
	 width="46.395px" height="46.52px" viewBox="0 0 46.395 46.52" enable-background="new 0 0 46.395 46.52" xml:space="preserve">
<path fill="#FFFFFF" d="M4.777,37.26C1.652,33.172,0,28.309,0,23.198C0,10.406,10.406,0,23.197,0c5.11,0,9.973,1.651,14.062,4.776
	l-0.607,0.796C32.74,2.581,28.086,1,23.197,1C10.958,1,1,10.958,1,23.198c0,4.89,1.581,9.543,4.571,13.454L4.777,37.26z"/>
<path fill="#FFFFFF" d="M23.199,46.52c-0.001,0-0.001,0-0.003,0c-5.271,0-10.246-1.8-14.392-5.086l0.621-0.752
	c3.966,3.146,8.728,4.838,13.771,4.838c0,0,0.002,0,0.003,0c5.929,0,11.502-2.371,15.694-6.562
	c4.193-4.192,6.501-9.798,6.501-15.729c0-5.042-1.662-9.817-4.808-13.785l0.783-0.629c3.287,4.146,5.023,9.117,5.023,14.388
	c0,6.195-2.413,12.082-6.794,16.464C35.22,44.046,29.395,46.52,23.199,46.52z"/>
<path fill="none" stroke="#E9C223" stroke-miterlimit="10" d="M36.956,5.175"/>
<path fill="none" stroke="#E9C223" stroke-miterlimit="10" d="M36.956,5.175"/>
<g>
	<path fill="#FFFFFF" d="M21.468,31.326c-0.18,0-0.328-0.146-0.328-0.324c0-0.182,0.146-0.326,0.328-0.326h3.789
		c0.178,0,0.324,0.146,0.324,0.326c0,0.179-0.146,0.324-0.324,0.324H21.468z"/>
	<path fill="#FFFFFF" d="M21.889,32.62c-0.182,0-0.327-0.146-0.327-0.326s0.146-0.325,0.327-0.325h2.946
		c0.178,0,0.324,0.146,0.324,0.325c0,0.181-0.146,0.326-0.324,0.326H21.889z"/>
	<path fill="#FFFFFF" d="M23.056,28.117c0,0.178-0.146,0.322-0.326,0.322c-0.18,0-0.326-0.146-0.326-0.322
		c0-1.373-0.038-2.396-0.229-3.348c-0.185-0.938-0.521-1.808-1.116-2.88c-0.089-0.156-0.03-0.354,0.124-0.439
		c0.158-0.086,0.355-0.03,0.442,0.126c0.632,1.139,0.99,2.064,1.189,3.068C23.011,25.633,23.053,26.695,23.056,28.117z"/>
	<path fill="#FFFFFF" d="M24.315,28.117c0,0.178-0.145,0.322-0.323,0.322s-0.323-0.146-0.323-0.322
		c0.002-1.423,0.042-2.483,0.239-3.474c0.198-1.004,0.556-1.93,1.188-3.068c0.088-0.158,0.285-0.214,0.441-0.126
		c0.157,0.086,0.215,0.285,0.127,0.439c-0.599,1.073-0.933,1.944-1.119,2.88C24.356,25.721,24.317,26.744,24.315,28.117z"/>
	<path fill="#FFFFFF" d="M21.24,22.042c-0.171-0.055-0.264-0.237-0.209-0.408c0.054-0.171,0.237-0.265,0.407-0.21
		c0.229,0.073,0.423,0.171,0.605,0.262l0.017,0.01c0.284,0.144,0.519,0.254,0.694,0.111l0.399-0.327
		c0.14-0.111,0.344-0.09,0.456,0.048c0.114,0.14,0.094,0.345-0.048,0.457l-0.398,0.326c-0.499,0.406-0.907,0.209-1.4-0.038
		l-0.014-0.006C21.595,22.187,21.42,22.1,21.24,22.042z"/>
	<path fill="#FFFFFF" d="M23.687,14.65c0,0.181-0.146,0.326-0.325,0.326c-0.181,0-0.324-0.146-0.324-0.326v-1.263
		c0-0.179,0.145-0.325,0.324-0.325c0.181,0,0.325,0.146,0.325,0.325V14.65z"/>
	<path fill="#FFFFFF" d="M25.282,21.423c0.172-0.056,0.354,0.04,0.407,0.21c0.055,0.17-0.039,0.354-0.211,0.408
		c-0.178,0.058-0.35,0.145-0.51,0.225l-0.016,0.006c-0.49,0.247-0.898,0.445-1.397,0.038l-0.399-0.326
		c-0.141-0.112-0.161-0.317-0.049-0.457c0.112-0.139,0.318-0.16,0.456-0.048l0.401,0.327c0.175,0.144,0.41,0.031,0.693-0.111
		l0.018-0.009C24.858,21.595,25.055,21.496,25.282,21.423z"/>
	<path fill="#FFFFFF" d="M27.459,18.126c1.047,1.049,1.697,2.498,1.697,4.099c0,0.625-0.101,1.23-0.285,1.796
		c-0.191,0.586-0.474,1.133-0.828,1.62c-0.601,0.817-1.084,1.354-1.461,1.772c-0.681,0.749-0.978,1.078-0.978,2.176
		c0,0.18-0.143,0.324-0.323,0.324h-0.011h-1.897h-1.906c-0.18,0-0.328-0.146-0.328-0.324c0-1.087-0.303-1.418-0.976-2.156v-0.001
		l-0.001,0.001c-0.381-0.417-0.87-0.953-1.482-1.792c-0.356-0.487-0.642-1.034-0.832-1.62c-0.184-0.565-0.284-1.172-0.284-1.796
		c0-0.783,0.157-1.533,0.44-2.216l0.007-0.013c0.293-0.707,0.725-1.343,1.253-1.87c0.53-0.532,1.169-0.963,1.88-1.256v-0.001
		c0.688-0.284,1.436-0.44,2.217-0.44c0.784,0,1.532,0.156,2.216,0.44C26.286,17.163,26.926,17.594,27.459,18.126L27.459,18.126z
		 M28.504,22.225c0-1.421-0.576-2.707-1.506-3.638c-0.478-0.477-1.043-0.858-1.668-1.118c-0.607-0.25-1.271-0.389-1.97-0.389
		c-0.699,0-1.363,0.138-1.966,0.389l0,0h-0.002c-0.629,0.26-1.194,0.643-1.67,1.118c-0.471,0.47-0.852,1.033-1.111,1.653
		l-0.006,0.017c-0.252,0.604-0.389,1.269-0.389,1.968c0,0.558,0.087,1.095,0.251,1.595c0.17,0.521,0.419,1.006,0.733,1.438
		c0.59,0.805,1.068,1.329,1.441,1.737v0.001c0.726,0.792,1.083,1.188,1.142,2.268h1.589h1.587c0.057-1.087,0.41-1.479,1.139-2.284
		c0.363-0.401,0.83-0.92,1.418-1.721c0.312-0.431,0.564-0.916,0.734-1.437C28.417,23.32,28.504,22.783,28.504,22.225z"/>
	<path fill="#FFFFFF" d="M22.309,33.912c-0.181,0-0.326-0.146-0.326-0.325c0-0.181,0.146-0.326,0.326-0.326h2.104
		c0.18,0,0.326,0.146,0.326,0.326c0,0.179-0.146,0.325-0.326,0.325H22.309z"/>
	<path fill="#FFFFFF" d="M27.358,15.808c-0.09,0.154-0.287,0.208-0.442,0.12c-0.154-0.089-0.209-0.289-0.119-0.444l0.631-1.093
		c0.088-0.155,0.287-0.208,0.443-0.12c0.153,0.089,0.209,0.288,0.119,0.443L27.358,15.808z"/>
	<path fill="#FFFFFF" d="M19.925,15.484c0.091,0.154,0.036,0.354-0.119,0.443c-0.152,0.088-0.354,0.034-0.44-0.12l-0.633-1.094
		c-0.087-0.154-0.036-0.354,0.12-0.442c0.155-0.089,0.354-0.034,0.442,0.12L19.925,15.484z"/>
	<path fill="#FFFFFF" d="M17.087,18.084c0.154,0.089,0.207,0.288,0.119,0.442c-0.087,0.154-0.288,0.208-0.442,0.119l-1.093-0.631
		c-0.156-0.088-0.209-0.287-0.121-0.441c0.088-0.156,0.287-0.208,0.443-0.121L17.087,18.084z"/>
	<path fill="#FFFFFF" d="M29.958,18.646c-0.154,0.089-0.354,0.036-0.443-0.119c-0.088-0.155-0.035-0.354,0.121-0.442l1.094-0.631
		c0.156-0.089,0.354-0.036,0.439,0.119c0.092,0.154,0.037,0.354-0.117,0.442L29.958,18.646z"/>
	<path fill="#FFFFFF" d="M19.978,23.513c0.068,0.164-0.011,0.355-0.174,0.426c-0.166,0.068-0.355-0.01-0.426-0.174
		c-0.111-0.263-0.196-0.538-0.254-0.823c-0.06-0.281-0.087-0.568-0.087-0.858c0-0.181,0.146-0.325,0.324-0.325
		c0.182,0,0.326,0.146,0.326,0.325c0,0.255,0.026,0.499,0.073,0.731C19.808,23.056,19.883,23.29,19.978,23.513L19.978,23.513z
		 M19.978,20.652c-0.069,0.165-0.262,0.243-0.427,0.173c-0.164-0.069-0.241-0.261-0.173-0.425c0.108-0.259,0.242-0.503,0.395-0.73
		h0.004l-0.004-0.001c0.158-0.232,0.336-0.448,0.53-0.644c0.192-0.192,0.409-0.369,0.643-0.527v-0.001
		c0.229-0.152,0.475-0.286,0.734-0.396c0.261-0.11,0.536-0.197,0.821-0.254c0.282-0.058,0.569-0.086,0.859-0.086
		c0.181,0,0.325,0.146,0.325,0.325c0,0.18-0.146,0.326-0.325,0.326c-0.258,0-0.5,0.024-0.732,0.07
		c-0.243,0.049-0.478,0.123-0.697,0.217c-0.216,0.09-0.423,0.203-0.62,0.337l0,0h-0.002c-0.189,0.128-0.374,0.28-0.544,0.45
		c-0.169,0.169-0.32,0.353-0.451,0.547l0,0C20.182,20.228,20.067,20.435,19.978,20.652z"/>
</g>
</svg>
