<?xml version="1.0" encoding="utf-8"?>
<!-- Generator: Adobe Illustrator 16.0.0, SVG Export Plug-In . SVG Version: 6.00 Build 0)  -->
<!DOCTYPE svg PUBLIC "-//W3C//DTD SVG 1.1//EN" "http://www.w3.org/Graphics/SVG/1.1/DTD/svg11.dtd">
<svg version="1.1" id="Layer_1" xmlns="http://www.w3.org/2000/svg" xmlns:xlink="http://www.w3.org/1999/xlink" x="0px" y="0px"
	 width="46.396px" height="46.645px" viewBox="0 0 46.396 46.645" enable-background="new 0 0 46.396 46.645" xml:space="preserve">
<g>
	<g>
		<path fill="#51C4CC" d="M4.778,37.26C1.652,33.169,0,28.307,0,23.197C0,10.406,10.407,0,23.199,0
			c5.107,0,9.969,1.652,14.061,4.777l-0.607,0.795C32.737,2.581,28.085,1,23.199,1C10.958,1,1,10.958,1,23.197
			c0,4.888,1.582,9.541,4.573,13.455L4.778,37.26z"/>
	</g>
	<g>
		<path fill="#51C4CC" d="M23.201,46.645c-0.001,0-0.001,0-0.002,0c-5.271,0-10.247-1.862-14.39-5.148l0.621-0.721
			c3.965,3.145,8.727,4.869,13.769,4.869c0,0,0.001,0,0.002,0c5.928,0,11.501-2.434,15.694-6.626s6.501-9.83,6.501-15.759
			c0-5.039-1.662-9.832-4.808-13.801l0.783-0.637c3.287,4.148,5.024,9.116,5.024,14.383c0,6.196-2.413,12.143-6.794,16.524
			C35.221,44.11,29.396,46.645,23.201,46.645z"/>
	</g>
	<path fill="none" stroke="#51C4CC" stroke-miterlimit="10" d="M36.956,5.175"/>
	<path fill="none" stroke="#51C4CC" stroke-miterlimit="10" d="M36.956,5.175"/>
	<g>
		<path fill="#51C4CC" d="M30.946,25.998c-0.645-0.442-2.63-1.513-4.089-2.292c-0.003-0.001-0.006-0.001-0.008-0.003
			c1.104-0.997,2.019-2.546,2.019-4.756c0-3.133-0.398-6.192-5.166-6.192c-4.771,0-5.169,3.059-5.169,6.192
			c0,2.214,0.919,3.765,2.026,4.761c0,0.001-0.001,0.001-0.002,0.001c-1.238,0.661-3.414,1.837-4.077,2.284
			c-1.23,0.829-1.76,3.357-1.931,4.405c-0.022,0.137-0.009,0.278,0.038,0.407c0.112,0.321,1.324,3.138,9.122,3.138
			c7.773,0,9.007-2.813,9.125-3.142c0.045-0.135,0.057-0.276,0.034-0.401C32.502,28.106,31.855,26.626,30.946,25.998z
			 M19.533,18.947c0-3.444,0.645-5.192,4.169-5.192c3.521,0,4.166,1.749,4.166,5.192c0,3.648-2.979,5.193-4.166,5.193
			C22.516,24.141,19.533,22.596,19.533,18.947z M23.708,32.943c-7.066,0-8.143-2.385-8.171-2.385c0,0,0,0,0,0
			c0.248-1.522,0.809-3.269,1.503-3.736c0.448-0.302,1.924-1.128,3.872-2.191c0.538,0.408,1.124,0.691,1.743,0.843l1.054,2.78
			l1.053-2.78c0.612-0.149,1.191-0.427,1.729-0.829c0.888,0.474,3.238,1.73,3.889,2.177c0.646,0.446,1.194,1.809,1.512,3.648
			C31.881,30.495,30.867,32.943,23.708,32.943z"/>
		<polygon fill="#51C4CC" points="25.421,29.943 27.403,30.562 29.384,29.942 29.384,28.278 25.421,28.278 		"/>
	</g>
</g>
</svg>
