<?xml version="1.0" encoding="utf-8"?>
<!-- Generator: Adobe Illustrator 16.0.0, SVG Export Plug-In . SVG Version: 6.00 Build 0)  -->
<!DOCTYPE svg PUBLIC "-//W3C//DTD SVG 1.1//EN" "http://www.w3.org/Graphics/SVG/1.1/DTD/svg11.dtd">
<svg version="1.1" id="Layer_1" xmlns="http://www.w3.org/2000/svg" xmlns:xlink="http://www.w3.org/1999/xlink" x="0px" y="0px"
	 width="46.396px" height="46.645px" viewBox="0 0 46.396 46.645" enable-background="new 0 0 46.396 46.645" xml:space="preserve">
<circle fill="#51C4CC" cx="23.197" cy="23.176" r="19.887"/>
<g>
	<g>
		<path fill="#51C4CC" d="M4.778,37.26C1.652,33.169,0,28.307,0,23.198C0,10.406,10.407,0,23.199,0
			c5.107,0,9.969,1.651,14.061,4.776l-0.606,0.796C32.737,2.581,28.085,1,23.199,1C10.958,1,1,10.958,1,23.198
			c0,4.888,1.582,9.54,4.573,13.454L4.778,37.26z"/>
	</g>
	<g>
		<path fill="#51C4CC" d="M23.201,46.645c-0.001,0-0.001,0-0.002,0c-5.271,0-10.247-1.861-14.39-5.147l0.621-0.722
			c3.965,3.146,8.727,4.869,13.769,4.869c0,0,0.001,0,0.002,0c5.928,0,11.501-2.434,15.694-6.626
			c4.192-4.191,6.501-9.83,6.501-15.759c0-5.039-1.662-9.832-4.809-13.801l0.783-0.637c3.287,4.147,5.024,9.115,5.024,14.383
			c0,6.195-2.413,12.143-6.794,16.523C35.221,44.11,29.396,46.645,23.201,46.645z"/>
	</g>
	<path fill="none" stroke="#51C4CC" stroke-miterlimit="10" d="M36.956,5.175"/>
	<path fill="none" stroke="#51C4CC" stroke-miterlimit="10" d="M36.956,5.175"/>
	<g>
		<path fill="#FFFFFF" d="M30.946,25.998c-0.646-0.442-2.63-1.514-4.089-2.292c-0.003-0.001-0.006-0.001-0.008-0.003
			c1.104-0.997,2.019-2.546,2.019-4.756c0-3.134-0.397-6.192-5.166-6.192c-4.771,0-5.169,3.059-5.169,6.192
			c0,2.214,0.919,3.765,2.026,4.761c0,0.001-0.001,0.001-0.002,0.001c-1.238,0.661-3.414,1.837-4.077,2.284
			c-1.23,0.829-1.76,3.356-1.932,4.404c-0.021,0.138-0.009,0.278,0.038,0.407c0.112,0.321,1.324,3.138,9.122,3.138
			c7.773,0,9.007-2.812,9.125-3.142c0.045-0.135,0.058-0.276,0.034-0.401C32.502,28.106,31.855,26.626,30.946,25.998z
			 M19.533,18.948c0-3.444,0.646-5.192,4.169-5.192c3.521,0,4.166,1.749,4.166,5.192c0,3.647-2.979,5.192-4.166,5.192
			C22.516,24.141,19.533,22.596,19.533,18.948z M23.708,32.943c-7.065,0-8.143-2.385-8.171-2.385l0,0
			c0.248-1.521,0.81-3.269,1.503-3.735c0.448-0.303,1.924-1.129,3.872-2.191c0.538,0.408,1.124,0.691,1.743,0.843l1.054,2.78
			l1.054-2.78c0.611-0.148,1.19-0.427,1.729-0.829c0.888,0.475,3.238,1.73,3.889,2.178c0.646,0.445,1.194,1.809,1.513,3.647
			C31.881,30.495,30.867,32.943,23.708,32.943z"/>
		<polygon fill="#FFFFFF" points="25.421,29.943 27.403,30.562 29.384,29.942 29.384,28.278 25.421,28.278 		"/>
	</g>
</g>
</svg>
