<?xml version="1.0" encoding="utf-8"?>
<!-- Generator: Adobe Illustrator 16.0.0, SVG Export Plug-In . SVG Version: 6.00 Build 0)  -->
<!DOCTYPE svg PUBLIC "-//W3C//DTD SVG 1.1//EN" "http://www.w3.org/Graphics/SVG/1.1/DTD/svg11.dtd">
<svg version="1.1" id="Layer_1" xmlns="http://www.w3.org/2000/svg" xmlns:xlink="http://www.w3.org/1999/xlink" x="0px" y="0px"
	 width="46.395px" height="46.352px" viewBox="0 0 46.395 46.352" enable-background="new 0 0 46.395 46.352" xml:space="preserve">
<g>
	<g>
		<g>
			<path fill="#8B4C9E" d="M4.778,37.26C1.652,33.173,0,28.311,0,23.198C0,10.406,10.406,0,23.197,0
				c5.109,0,9.974,1.65,14.062,4.775l-0.607,0.797C32.738,2.581,28.085,1,23.197,1C10.958,1,1,10.958,1,23.198
				c0,4.892,1.581,9.544,4.57,13.453L4.778,37.26z"/>
		</g>
		<g>
			<path fill="#8B4C9E" d="M23.199,46.352c-0.001,0-0.001,0-0.004,0c-5.271,0-10.245-1.716-14.391-5.002l0.621-0.794
				c3.965,3.146,8.727,4.796,13.77,4.796c0,0,0.003,0,0.004,0c5.929,0,11.502-2.287,15.692-6.479
				c4.192-4.192,6.501-9.756,6.501-15.688c0-5.042-1.662-9.797-4.808-13.764l0.783-0.619c3.286,4.146,5.022,9.123,5.022,14.392
				c0,6.197-2.413,12-6.794,16.384C35.22,43.959,29.395,46.352,23.199,46.352z"/>
		</g>
		<path fill="none" stroke="#8B4C9E" stroke-miterlimit="10" d="M36.956,5.175"/>
		<path fill="none" stroke="#8B4C9E" stroke-miterlimit="10" d="M36.956,5.175"/>
	</g>
</g>
<g>
	<g>
		<g id="Layer_1_1_">
			<g>
				<path fill="#8B4C9E" d="M20.241,19.966l-1.427-1.347c0.166-0.303,0.271-0.645,0.271-1.013c0-1.167-0.945-2.11-2.113-2.11
					c-1.167,0-2.114,0.942-2.114,2.11s0.947,2.113,2.114,2.113c0.412,0,0.792-0.122,1.117-0.326l1.423,1.347
					C19.728,20.457,19.97,20.196,20.241,19.966z"/>
				<path fill="#8B4C9E" d="M26.267,19.798l1.896-3.188c0.187,0.055,0.38,0.093,0.582,0.093c1.17,0,2.113-0.946,2.113-2.113
					s-0.943-2.112-2.113-2.112c-1.167,0-2.112,0.945-2.112,2.112c0,0.58,0.234,1.103,0.611,1.485l-1.889,3.177
					C25.679,19.399,25.984,19.583,26.267,19.798z"/>
				<path fill="#8B4C9E" d="M32.796,22.465c-0.909,0-1.68,0.577-1.979,1.383l-2.63-0.26c0,0.02,0.003,0.039,0.003,0.059
					c0,0.345-0.038,0.68-0.104,1.001l2.629,0.262c0.159,1.009,1.027,1.78,2.082,1.78c1.167,0,2.111-0.943,2.111-2.11
					S33.963,22.465,32.796,22.465z"/>
				<path fill="#8B4C9E" d="M25.538,30.772l-0.588-2.567c-0.332,0.113-0.68,0.196-1.038,0.238l0.589,2.569
					c-0.675,0.354-1.143,1.052-1.143,1.866c0,1.168,0.944,2.111,2.114,2.111c1.167,0,2.111-0.944,2.111-2.111
					C27.588,31.734,26.675,30.807,25.538,30.772z"/>
				<path fill="#8B4C9E" d="M18.642,24.666l-3.272,1.097c-0.378-0.577-1.028-0.96-1.77-0.96c-1.168,0-2.112,0.945-2.112,2.113
					s0.944,2.111,2.112,2.111c1.166,0,2.114-0.943,2.114-2.111c0-0.049-0.012-0.094-0.016-0.144l3.283-1.101
					C18.835,25.355,18.718,25.019,18.642,24.666z"/>
				<g>
					<path fill="#8B4C9E" d="M23.362,27.77c-2.272,0-4.124-1.85-4.124-4.123c0-2.272,1.852-4.124,4.124-4.124
						s4.122,1.852,4.122,4.124C27.484,25.92,25.635,27.77,23.362,27.77z M23.362,20.523c-1.723,0-3.124,1.401-3.124,3.124
						c0,1.724,1.401,3.123,3.124,3.123c1.724,0,3.122-1.399,3.122-3.123C26.484,21.924,25.084,20.523,23.362,20.523z"/>
				</g>
			</g>
		</g>
	</g>
</g>
</svg>
