<?xml version="1.0" encoding="utf-8"?>
<!-- Generator: Adobe Illustrator 16.0.0, SVG Export Plug-In . SVG Version: 6.00 Build 0)  -->
<!DOCTYPE svg PUBLIC "-//W3C//DTD SVG 1.1//EN" "http://www.w3.org/Graphics/SVG/1.1/DTD/svg11.dtd">
<svg version="1.1" id="Layer_1" xmlns="http://www.w3.org/2000/svg" xmlns:xlink="http://www.w3.org/1999/xlink" x="0px" y="0px"
	 width="46.395px" height="46.52px" viewBox="0 0 46.395 46.52" enable-background="new 0 0 46.395 46.52" xml:space="preserve">
<g>
	<g>
		<g>
			<path fill="#E9C223" d="M4.777,37.26C1.652,33.172,0,28.309,0,23.197C0,10.406,10.406,0,23.197,0
				c5.11,0,9.972,1.652,14.062,4.777l-0.607,0.795C32.739,2.581,28.086,1,23.197,1C10.958,1,1,10.958,1,23.197
				c0,4.89,1.581,9.543,4.572,13.455L4.777,37.26z"/>
		</g>
		<g>
			<path fill="#E9C223" d="M23.199,46.52c-0.001,0-0.001,0-0.002,0c-5.271,0-10.247-1.8-14.392-5.086l0.621-0.752
				c3.966,3.145,8.728,4.838,13.771,4.838c0,0,0.001,0,0.002,0c5.929,0,11.502-2.371,15.695-6.563s6.501-9.798,6.501-15.728
				c0-5.042-1.662-9.818-4.808-13.785l0.783-0.629c3.287,4.145,5.024,9.117,5.024,14.387c0,6.196-2.413,12.082-6.794,16.464
				C35.22,44.046,29.395,46.52,23.199,46.52z"/>
		</g>
		<path fill="none" stroke="#E9C223" stroke-miterlimit="10" d="M36.956,5.175"/>
		<path fill="none" stroke="#E9C223" stroke-miterlimit="10" d="M36.956,5.175"/>
	</g>
	<g>
		<g>
			<g>
				<path fill="#E9C223" d="M21.468,31.326c-0.18,0-0.328-0.146-0.328-0.324c0-0.181,0.146-0.326,0.328-0.326h3.789
					c0.178,0,0.324,0.146,0.324,0.326c0,0.179-0.146,0.324-0.324,0.324H21.468z"/>
				<path fill="#E9C223" d="M21.889,32.62c-0.182,0-0.327-0.146-0.327-0.326c0-0.18,0.146-0.325,0.327-0.325h2.946
					c0.178,0,0.324,0.146,0.324,0.325c0,0.181-0.146,0.326-0.324,0.326H21.889z"/>
				<path fill="#E9C223" d="M23.056,28.117c0,0.178-0.146,0.323-0.326,0.323s-0.326-0.146-0.326-0.323
					c0-1.373-0.039-2.396-0.229-3.347c-0.185-0.938-0.521-1.808-1.116-2.88c-0.089-0.156-0.03-0.354,0.124-0.44
					c0.158-0.086,0.355-0.03,0.442,0.126c0.632,1.139,0.99,2.065,1.19,3.069C23.011,25.633,23.053,26.695,23.056,28.117z"/>
				<path fill="#E9C223" d="M24.315,28.117c0,0.178-0.145,0.323-0.324,0.323c-0.178,0-0.323-0.146-0.323-0.323
					c0.002-1.422,0.042-2.483,0.239-3.473c0.199-1.004,0.556-1.93,1.189-3.069c0.088-0.158,0.285-0.213,0.441-0.126
					c0.158,0.086,0.215,0.286,0.127,0.44c-0.598,1.073-0.932,1.944-1.119,2.88C24.356,25.721,24.317,26.744,24.315,28.117z"/>
				<path fill="#E9C223" d="M21.24,22.042c-0.17-0.054-0.263-0.237-0.209-0.408s0.238-0.265,0.408-0.21
					c0.228,0.073,0.423,0.171,0.605,0.262l0.017,0.01c0.284,0.143,0.518,0.253,0.694,0.111l0.4-0.327
					c0.139-0.112,0.343-0.09,0.456,0.048c0.114,0.139,0.093,0.344-0.048,0.457l-0.399,0.326c-0.499,0.406-0.907,0.209-1.4-0.038
					l-0.014-0.006C21.595,22.187,21.42,22.1,21.24,22.042z"/>
				<path fill="#E9C223" d="M23.687,14.65c0,0.18-0.146,0.326-0.325,0.326c-0.181,0-0.325-0.146-0.325-0.326v-1.263
					c0-0.179,0.145-0.325,0.325-0.325c0.18,0,0.325,0.146,0.325,0.325V14.65z"/>
				<path fill="#E9C223" d="M25.282,21.423c0.172-0.056,0.354,0.04,0.408,0.21s-0.039,0.354-0.211,0.408
					c-0.178,0.058-0.35,0.145-0.51,0.225l-0.016,0.006c-0.49,0.247-0.898,0.445-1.397,0.038l-0.4-0.326
					c-0.14-0.113-0.161-0.318-0.048-0.457c0.112-0.139,0.318-0.161,0.456-0.048l0.401,0.327c0.175,0.143,0.41,0.031,0.693-0.111
					l0.018-0.009C24.858,21.595,25.055,21.496,25.282,21.423z"/>
				<path fill="#E9C223" d="M27.459,18.126c1.047,1.049,1.697,2.498,1.697,4.099c0,0.625-0.1,1.23-0.285,1.796
					c-0.191,0.586-0.473,1.133-0.828,1.62c-0.6,0.817-1.084,1.354-1.461,1.772c-0.68,0.749-0.977,1.078-0.977,2.176
					c0,0.18-0.143,0.324-0.324,0.324h-0.01h-1.898h-1.906c-0.18,0-0.328-0.145-0.328-0.324c0-1.087-0.303-1.418-0.976-2.156v-0.001
					l-0.001,0.001c-0.381-0.417-0.87-0.953-1.482-1.792c-0.357-0.487-0.642-1.034-0.832-1.62c-0.184-0.566-0.284-1.172-0.284-1.796
					c0-0.783,0.157-1.533,0.44-2.216l0.007-0.013c0.293-0.707,0.725-1.342,1.253-1.87c0.53-0.532,1.169-0.963,1.88-1.256v-0.001
					c0.687-0.284,1.435-0.44,2.217-0.44c0.784,0,1.532,0.156,2.215,0.44C26.286,17.163,26.926,17.594,27.459,18.126L27.459,18.126z
					 M28.504,22.225c0-1.421-0.576-2.707-1.506-3.638c-0.477-0.476-1.043-0.858-1.668-1.118c-0.607-0.25-1.271-0.389-1.969-0.389
					c-0.7,0-1.364,0.138-1.966,0.389l0,0h-0.002c-0.629,0.26-1.195,0.643-1.67,1.118c-0.471,0.47-0.852,1.033-1.111,1.653
					l-0.006,0.017c-0.252,0.604-0.389,1.269-0.389,1.968c0,0.557,0.087,1.095,0.251,1.595c0.17,0.521,0.419,1.005,0.733,1.438
					c0.59,0.805,1.069,1.329,1.442,1.737v0.001c0.725,0.792,1.083,1.188,1.141,2.268h1.589h1.587
					c0.057-1.087,0.41-1.479,1.139-2.284c0.363-0.402,0.83-0.92,1.418-1.721c0.312-0.431,0.564-0.916,0.734-1.437
					C28.417,23.32,28.504,22.783,28.504,22.225z"/>
				<path fill="#E9C223" d="M22.309,33.912c-0.181,0-0.326-0.146-0.326-0.325c0-0.181,0.146-0.326,0.326-0.326h2.104
					c0.18,0,0.326,0.146,0.326,0.326c0,0.179-0.146,0.325-0.326,0.325H22.309z"/>
				<path fill="#E9C223" d="M27.358,15.808c-0.09,0.154-0.287,0.208-0.443,0.12c-0.154-0.089-0.209-0.289-0.119-0.444l0.631-1.093
					c0.088-0.155,0.287-0.208,0.443-0.12c0.154,0.089,0.209,0.288,0.119,0.443L27.358,15.808z"/>
				<path fill="#E9C223" d="M19.925,15.484c0.091,0.154,0.036,0.354-0.119,0.443c-0.152,0.088-0.354,0.034-0.441-0.12l-0.632-1.094
					c-0.087-0.154-0.036-0.354,0.12-0.442c0.155-0.089,0.354-0.034,0.442,0.12L19.925,15.484z"/>
				<path fill="#E9C223" d="M17.087,18.084c0.154,0.089,0.207,0.288,0.119,0.443c-0.087,0.154-0.288,0.208-0.442,0.119l-1.093-0.631
					c-0.156-0.088-0.209-0.287-0.121-0.442c0.088-0.156,0.287-0.208,0.443-0.121L17.087,18.084z"/>
				<path fill="#E9C223" d="M29.958,18.646c-0.154,0.089-0.354,0.036-0.443-0.119c-0.088-0.156-0.035-0.354,0.121-0.443l1.094-0.631
					c0.156-0.089,0.354-0.036,0.439,0.119c0.092,0.155,0.037,0.355-0.117,0.443L29.958,18.646z"/>
				<path fill="#E9C223" d="M19.978,23.513c0.068,0.164-0.011,0.355-0.174,0.426c-0.166,0.068-0.356-0.01-0.426-0.174
					c-0.111-0.263-0.196-0.538-0.254-0.823c-0.059-0.282-0.087-0.569-0.087-0.859c0-0.18,0.146-0.325,0.325-0.325
					c0.181,0,0.326,0.146,0.326,0.325c0,0.255,0.026,0.499,0.073,0.732C19.808,23.056,19.883,23.29,19.978,23.513L19.978,23.513z
					 M19.978,20.652c-0.07,0.165-0.262,0.243-0.427,0.172c-0.164-0.069-0.241-0.26-0.173-0.424c0.109-0.259,0.242-0.503,0.395-0.731
					h0.004l-0.004-0.001c0.158-0.232,0.336-0.448,0.53-0.643c0.192-0.193,0.409-0.37,0.643-0.528v-0.001
					c0.228-0.152,0.474-0.286,0.734-0.395c0.261-0.111,0.536-0.197,0.821-0.254c0.282-0.058,0.57-0.086,0.86-0.086
					c0.18,0,0.325,0.146,0.325,0.325c0,0.18-0.146,0.326-0.325,0.326c-0.258,0-0.5,0.025-0.733,0.071
					c-0.243,0.048-0.477,0.123-0.697,0.216c-0.216,0.09-0.423,0.204-0.62,0.337l0,0h-0.002c-0.19,0.128-0.374,0.281-0.544,0.451
					c-0.169,0.168-0.32,0.352-0.451,0.546v0C20.182,20.228,20.067,20.435,19.978,20.652z"/>
			</g>
		</g>
	</g>
</g>
</svg>
