<?xml version="1.0" encoding="utf-8"?>
<!-- Generator: Adobe Illustrator 16.0.0, SVG Export Plug-In . SVG Version: 6.00 Build 0)  -->
<!DOCTYPE svg PUBLIC "-//W3C//DTD SVG 1.1//EN" "http://www.w3.org/Graphics/SVG/1.1/DTD/svg11.dtd">
<svg version="1.1" id="Layer_1" xmlns="http://www.w3.org/2000/svg" xmlns:xlink="http://www.w3.org/1999/xlink" x="0px" y="0px"
	 width="46.395px" height="46.457px" viewBox="0 0 46.395 46.457" enable-background="new 0 0 46.395 46.457" xml:space="preserve">
<g>
	<g>
		<g>
			<g>
				<g>
					<path fill="#F6851F" d="M27.274,20.103H19.12l2.547-7.131c0.23-0.645,0.844-1.079,1.529-1.079s1.301,0.435,1.531,1.08
						L27.274,20.103z M20.212,19.333h5.971l-2.18-6.103c-0.121-0.341-0.445-0.568-0.807-0.568c-0.359,0-0.686,0.229-0.805,0.568
						L20.212,19.333z"/>
				</g>
				<g>
					<path fill="#F6851F" d="M30.374,28.782H16.021l2.046-5.729h10.261L30.374,28.782z M17.111,28.013h12.171l-1.496-4.19h-9.178
						L17.111,28.013z"/>
				</g>
				<g>
					<path fill="#F6851F" d="M31.876,32.502H14.518c-0.896,0-1.624-0.729-1.624-1.624c0-0.896,0.728-1.625,1.624-1.625h17.358
						c0.896,0,1.625,0.729,1.625,1.625C33.501,31.773,32.772,32.502,31.876,32.502z M14.518,30.021
						c-0.472,0-0.855,0.384-0.855,0.856c0,0.471,0.384,0.855,0.855,0.855h17.358c0.473,0,0.855-0.385,0.855-0.855
						c0-0.473-0.383-0.856-0.855-0.856H14.518z"/>
				</g>
			</g>
		</g>
	</g>
</g>
<g>
	<g>
		<g>
			<g>
				<path fill="#F6851F" d="M4.777,37.26C1.652,33.172,0,28.31,0,23.197C0,10.406,10.406,0,23.197,0
					c5.109,0,9.972,1.652,14.064,4.777l-0.607,0.795C32.738,2.581,28.085,1,23.197,1C10.958,1,1,10.958,1,23.197
					c0,4.891,1.581,9.544,4.571,13.455L4.777,37.26z"/>
			</g>
			<g>
				<path fill="#F6851F" d="M23.199,46.457c-0.001,0-0.001,0-0.002,0c-5.271,0-10.248-1.769-14.39-5.055l0.621-0.768
					c3.964,3.145,8.726,4.822,13.769,4.822c0,0,0.001,0,0.002,0c5.929,0,11.502-2.34,15.695-6.532s6.501-9.782,6.501-15.712
					c0-5.042-1.662-9.811-4.808-13.777l0.783-0.625c3.287,4.145,5.024,9.119,5.024,14.389c0,6.196-2.413,12.052-6.794,16.434
					C35.22,44.014,29.395,46.457,23.199,46.457z"/>
			</g>
			<path fill="none" stroke="#F6851F" stroke-miterlimit="10" d="M36.957,5.175"/>
			<path fill="none" stroke="#F6851F" stroke-miterlimit="10" d="M36.957,5.175"/>
		</g>
	</g>
</g>
</svg>
