<?xml version="1.0" encoding="utf-8"?>
<!-- Generator: Adobe Illustrator 16.0.0, SVG Export Plug-In . SVG Version: 6.00 Build 0)  -->
<!DOCTYPE svg PUBLIC "-//W3C//DTD SVG 1.1//EN" "http://www.w3.org/Graphics/SVG/1.1/DTD/svg11.dtd">
<svg version="1.1" id="Layer_1" xmlns="http://www.w3.org/2000/svg" xmlns:xlink="http://www.w3.org/1999/xlink" x="0px" y="0px"
	 width="46.395px" height="46.52px" viewBox="0 0 46.395 46.52" enable-background="new 0 0 46.395 46.52" xml:space="preserve">
<g>
	<g>
		<g>
			<defs>
				<rect id="SVGID_1_" x="10.089" y="3.184" width="26.098" height="40.152"/>
			</defs>
			<clipPath id="SVGID_2_">
				<use xlink:href="#SVGID_1_"  overflow="visible"/>
			</clipPath>
			<path clip-path="url(#SVGID_2_)" d="M36.131,28.438c0-0.064-0.015-0.124-0.037-0.184c-0.006-0.018-0.012-0.031-0.02-0.047
				c-0.008-0.015-0.008-0.029-0.021-0.046l-5.369-8.858c-0.098-0.16-0.271-0.26-0.458-0.26h-2.769l6.235-6.232
				c0.211-0.214,0.211-0.552,0-0.761l-8.827-8.829c-0.208-0.21-0.546-0.21-0.758,0l-11.58,11.581c-0.21,0.21-0.21,0.548,0,0.759
				l3.479,3.482h-0.01c-0.19,0-0.363,0.1-0.462,0.26l-5.37,8.858c-0.007,0.017-0.013,0.031-0.019,0.046
				c-0.007,0.016-0.013,0.029-0.021,0.047c-0.021,0.06-0.036,0.119-0.036,0.184v0.001v14.317c0,0.301,0.24,0.54,0.537,0.54h24.969
				c0.296,0,0.538-0.239,0.538-0.54V28.439L36.131,28.438L36.131,28.438z M24.486,4.36l8.072,8.07L21.733,23.25l-4.049-4.053
				l-4.018-4.015L24.486,4.36z M16.298,20.117h0.784l4.27,4.271c0.05,0.049,0.111,0.087,0.177,0.119
				c0.066,0.023,0.136,0.038,0.204,0.038h4.644c0.296,0,0.537-0.24,0.537-0.535c0-0.296-0.241-0.538-0.537-0.538h-3.345l3.356-3.355
				h3.535l4.718,7.783H11.578L16.298,20.117z M35.057,42.222H11.162V28.977h23.895V42.222z M35.057,42.222"/>
		</g>
	</g>
</g>
</svg>
