<?xml version="1.0" encoding="utf-8"?>
<!-- Generator: Adobe Illustrator 16.0.0, SVG Export Plug-In . SVG Version: 6.00 Build 0)  -->
<!DOCTYPE svg PUBLIC "-//W3C//DTD SVG 1.1//EN" "http://www.w3.org/Graphics/SVG/1.1/DTD/svg11.dtd">
<svg version="1.1" id="Layer_1" xmlns="http://www.w3.org/2000/svg" xmlns:xlink="http://www.w3.org/1999/xlink" x="0px" y="0px"
	 width="46.395px" height="46.395px" viewBox="0 0 46.395 46.395" enable-background="new 0 0 46.395 46.395" xml:space="preserve">
<g>
	<path fill="#FFFFFF" d="M23.198,46.395c-12.791,0-23.197-10.406-23.197-23.197S10.407,0,23.198,0
		c12.791,0,23.197,10.406,23.197,23.197S35.989,46.395,23.198,46.395z M23.198,1.052c-12.21,0-22.145,9.935-22.145,22.146
		s9.935,22.145,22.145,22.145c12.211,0,22.145-9.934,22.145-22.145S35.408,1.052,23.198,1.052z"/>
</g>
<g>
	<path fill="#FFFFFF" d="M23.198,40.031c-9.282,0-16.833-7.552-16.833-16.834S13.915,6.364,23.198,6.364s16.834,7.552,16.834,16.834
		S32.48,40.031,23.198,40.031z M23.198,7.127c-8.861,0-16.07,7.209-16.07,16.071s7.209,16.069,16.07,16.069
		c8.861,0,16.07-7.208,16.07-16.069S32.059,7.127,23.198,7.127z"/>
</g>
<g>
	<path fill="#FFFFFF" d="M23.198,34.031c-5.974,0-10.834-4.859-10.834-10.834c0-5.974,4.86-10.834,10.834-10.834
		c5.975,0,10.835,4.86,10.835,10.834C34.032,29.172,29.172,34.031,23.198,34.031z M23.198,12.854
		c-5.703,0-10.343,4.64-10.343,10.343c0,5.704,4.64,10.343,10.343,10.343c5.704,0,10.343-4.639,10.343-10.343
		C33.54,17.494,28.902,12.854,23.198,12.854z"/>
</g>
<circle fill="#FFFFFF" cx="23.197" cy="23.198" r="3.186"/>
</svg>
