<?xml version="1.0" encoding="utf-8"?>
<!-- Generator: Adobe Illustrator 16.0.0, SVG Export Plug-In . SVG Version: 6.00 Build 0)  -->
<!DOCTYPE svg PUBLIC "-//W3C//DTD SVG 1.1//EN" "http://www.w3.org/Graphics/SVG/1.1/DTD/svg11.dtd">
<svg version="1.1" id="Layer_1" xmlns="http://www.w3.org/2000/svg" xmlns:xlink="http://www.w3.org/1999/xlink" x="0px" y="0px"
	 width="46.395px" height="46.395px" viewBox="0 0 46.395 46.395" enable-background="new 0 0 46.395 46.395" xml:space="preserve">
<circle fill="#3F799E" cx="23.198" cy="23.176" r="19.887"/>
<g>
	<g>
		<g>
			<path fill="#3F799E" d="M4.777,37.26C1.652,33.172,0,28.309,0,23.198C0,10.406,10.406,0,23.196,0
				c5.111,0,9.975,1.651,14.063,4.776l-0.607,0.796C32.74,2.581,28.086,1,23.196,1C10.957,1,1,10.958,1,23.198
				c0,4.89,1.581,9.543,4.571,13.454L4.777,37.26z"/>
		</g>
		<g>
			<path fill="#3F799E" d="M23.198,46.395c-0.002,0-0.002,0-0.003,0c-5.27,0-10.245-1.736-14.391-5.022l0.621-0.783
				c3.966,3.145,8.728,4.807,13.77,4.807c0,0,0.001,0,0.003,0c5.929,0,11.503-2.309,15.694-6.501
				c4.192-4.191,6.501-9.767,6.501-15.695c0-5.042-1.662-9.804-4.808-13.771l0.783-0.621c3.287,4.146,5.023,9.121,5.023,14.392
				c0,6.195-2.413,12.021-6.794,16.402C35.22,43.981,29.395,46.395,23.198,46.395z"/>
		</g>
		<g>
			<path fill="none" stroke="#4E6CB3" stroke-miterlimit="10" d="M36.956,5.175"/>
		</g>
		<g>
			<path fill="none" stroke="#4E6CB3" stroke-miterlimit="10" d="M36.956,5.175"/>
		</g>
	</g>
	<g>
		<g>
			<g>
				<path fill="#FFFFFF" d="M32.973,32.09h-2.382c-0.837,0-1.52-0.682-1.52-1.521v-0.542H16.73v0.542
					c0,0.839-0.681,1.521-1.519,1.521h-2.383c-0.837,0-1.52-0.682-1.52-1.521v-2.384c-0.956-0.966-1.453-2.224-1.45-3.605
					c0.005-0.896,0.233-1.761,0.654-2.512c-0.476-0.074-0.87-0.44-0.971-0.925L9.161,19.29c-0.073-0.348,0.016-0.707,0.241-0.984
					c0.215-0.27,0.558-0.434,0.913-0.434h2.24c0.807-2.034,1.619-3.3,2.479-3.867c1.61-1.062,4.553-1.693,7.868-1.693
					c3.316,0,6.258,0.633,7.868,1.693c0.855,0.564,1.689,1.865,2.479,3.867h2.237c0.354,0,0.688,0.156,0.914,0.432
					c0.227,0.279,0.313,0.637,0.242,0.985l-0.383,1.852c-0.102,0.494-0.511,0.865-1.002,0.93c0.447,0.775,0.687,1.672,0.684,2.604
					c-0.007,1.377-0.52,2.634-1.449,3.565v2.329C34.492,31.408,33.811,32.09,32.973,32.09z M15.73,29.028h14.342v1.542
					c0,0.286,0.232,0.521,0.52,0.521h2.382c0.286,0,0.521-0.233,0.521-0.521v-2.763l0.161-0.148
					c0.825-0.756,1.282-1.815,1.288-2.986c0.003-1.038-0.36-2.017-1.023-2.757l-0.748-0.834h1.936c0.087,0,0.159-0.06,0.178-0.143
					l0.382-1.852c0.011-0.053-0.003-0.108-0.037-0.151c-0.033-0.04-0.085-0.063-0.14-0.063h-2.928l-0.122-0.323
					c-0.729-1.929-1.519-3.246-2.219-3.709c-1.433-0.942-4.236-1.528-7.318-1.528s-5.886,0.585-7.317,1.528
					c-0.489,0.323-1.272,1.229-2.219,3.71l-0.123,0.322h-2.927c-0.054,0-0.104,0.022-0.134,0.061
					c-0.039,0.047-0.053,0.103-0.042,0.153l0.383,1.854c0.018,0.083,0.09,0.144,0.175,0.144h1.859l-0.717,0.828
					c-0.627,0.723-0.975,1.672-0.98,2.673c-0.002,1.186,0.445,2.252,1.261,3.002l0.162,0.147l0.027,0.242v2.594
					c0,0.286,0.232,0.521,0.52,0.521h2.383c0.286,0,0.519-0.233,0.519-0.521v-1.543H15.73z M30.445,27.342
					c-1.382,0-2.506-1.124-2.506-2.505s1.124-2.504,2.506-2.504c1.383,0,2.507,1.124,2.507,2.504S31.827,27.342,30.445,27.342z
					 M30.445,23.333c-0.829,0-1.506,0.675-1.506,1.504c0,0.83,0.677,1.505,1.506,1.505c0.83,0,1.507-0.675,1.507-1.505
					C31.951,24.008,31.275,23.333,30.445,23.333z M15.387,27.342c-1.382,0-2.506-1.124-2.506-2.505s1.124-2.504,2.506-2.504
					c1.38,0,2.503,1.124,2.503,2.504S16.767,27.342,15.387,27.342z M15.387,23.333c-0.831,0-1.506,0.675-1.506,1.504
					c0,0.83,0.675,1.505,1.506,1.505c0.829,0,1.503-0.675,1.503-1.505C16.89,24.008,16.215,23.333,15.387,23.333z M31.837,19.938
					H13.963l0.244-0.671c0.723-1.986,1.376-3.185,1.943-3.56c1.303-0.856,3.825-1.367,6.75-1.367c2.927,0,5.448,0.511,6.748,1.367
					c0.57,0.376,1.226,1.574,1.944,3.561L31.837,19.938z M15.4,18.938h15.001c-0.598-1.519-1.065-2.239-1.303-2.396
					c-1.125-0.741-3.5-1.202-6.197-1.202c-2.696,0-5.072,0.461-6.199,1.202C16.467,16.698,16,17.418,15.4,18.938z"/>
			</g>
		</g>
	</g>
</g>
</svg>
