<?xml version="1.0" encoding="utf-8"?>
<!-- Generator: Adobe Illustrator 16.0.0, SVG Export Plug-In . SVG Version: 6.00 Build 0)  -->
<!DOCTYPE svg PUBLIC "-//W3C//DTD SVG 1.1//EN" "http://www.w3.org/Graphics/SVG/1.1/DTD/svg11.dtd">
<svg version="1.1" id="Layer_1" xmlns="http://www.w3.org/2000/svg" xmlns:xlink="http://www.w3.org/1999/xlink" x="0px" y="0px"
	 width="202.896px" height="46.574px" viewBox="0 0 202.896 46.574" enable-background="new 0 0 202.896 46.574"
	 xml:space="preserve">
<g>
	<g>
		<path fill="#4BB3D2" d="M61.715,34.698h-1.729V13.452h-6.783v-1.536h15.326v1.536h-6.814V34.698z"/>
		<path fill="#4BB3D2" d="M81.234,25.131c0-2.976-1.473-4.607-4.256-4.607c-2.784,0-4.352,1.664-4.352,4.607v9.567h-1.633V11.916
			h1.633v9.183c1.151-1.344,2.655-2.016,4.543-2.016c3.552,0,5.695,2.176,5.695,5.759v9.855h-1.631V25.131z"/>
		<path fill="#4BB3D2" d="M87.09,11.916h2.016v2.016H87.09V11.916z M87.282,19.275h1.632v15.423h-1.632V19.275z"/>
		<path fill="#4BB3D2" d="M103.762,25.131c0-2.976-1.473-4.607-4.256-4.607s-4.352,1.664-4.352,4.607v9.567h-1.632V19.275h1.632
			v1.824c1.152-1.344,2.656-2.016,4.543-2.016c1.696,0,3.072,0.48,4.096,1.472c1.057,1.024,1.601,2.464,1.601,4.288v9.855h-1.632
			V25.131z"/>
		<path fill="#4BB3D2" d="M114.961,26.219l-3.52,4.064v4.415h-1.631V11.916h1.631v16.062l7.648-8.703h2.079l-5.087,5.76l6.207,9.663
			h-2.016L114.961,26.219z"/>
		<path fill="#4BB3D2" d="M130.993,34.891c-3.424,0-5.888-0.801-8.063-3.008l2.304-2.271c1.664,1.663,3.487,2.176,5.823,2.176
			c2.977,0,4.704-1.281,4.704-3.488c0-0.992-0.288-1.824-0.896-2.368c-0.576-0.544-1.152-0.768-2.496-0.96l-2.688-0.384
			c-1.856-0.256-3.328-0.896-4.32-1.824c-1.119-1.056-1.664-2.496-1.664-4.352c0-3.968,2.88-6.688,7.615-6.688
			c3.008,0,5.12,0.768,7.072,2.592l-2.208,2.176c-1.408-1.344-3.04-1.76-4.96-1.76c-2.688,0-4.16,1.536-4.16,3.551
			c0,0.832,0.257,1.568,0.865,2.112c0.575,0.512,1.504,0.896,2.559,1.056l2.592,0.384c2.112,0.32,3.297,0.832,4.256,1.696
			c1.248,1.088,1.856,2.72,1.856,4.672C139.185,32.395,135.761,34.891,130.993,34.891z"/>
		<path fill="#4BB3D2" d="M161.615,34.698v-9.888c0-2.527-1.439-3.615-3.264-3.615c-1.76,0-3.359,1.12-3.359,3.455v10.048h-3.264
			v-9.888c0-2.527-1.439-3.615-3.264-3.615s-3.359,1.12-3.359,3.615v9.888h-3.264V18.476h3.199v1.632
			c1.088-1.184,2.688-1.824,4.32-1.824c2.016,0,3.583,0.8,4.607,2.368c1.312-1.6,2.943-2.368,5.088-2.368
			c1.663,0,3.135,0.544,4.096,1.472c1.248,1.216,1.728,2.752,1.728,4.576v10.367H161.615z"/>
		<path fill="#4BB3D2" d="M177.041,34.698v-1.472c-1.185,1.184-2.305,1.664-4.32,1.664s-3.359-0.48-4.352-1.473
			c-0.832-0.863-1.279-2.111-1.279-3.487c0-2.72,1.887-4.672,5.6-4.672h4.287v-1.151c0-2.048-1.023-3.04-3.552-3.04
			c-1.792,0-2.655,0.416-3.552,1.568l-2.145-2.016c1.537-1.792,3.137-2.336,5.824-2.336c4.447,0,6.688,1.888,6.688,5.568v10.847
			H177.041z M176.977,27.531h-3.808c-1.92,0-2.912,0.863-2.912,2.336c0,1.471,0.929,2.303,2.976,2.303
			c1.248,0,2.176-0.096,3.04-0.928c0.479-0.479,0.704-1.248,0.704-2.399V27.531z"/>
		<path fill="#4BB3D2" d="M192.593,22.283c-0.735-0.736-1.312-1.088-2.432-1.088c-1.76,0-3.231,1.408-3.231,3.647v9.855h-3.264
			V18.476h3.199v1.76c0.832-1.152,2.496-1.952,4.32-1.952c1.567,0,2.752,0.416,3.871,1.536L192.593,22.283z"/>
		<path fill="#4BB3D2" d="M200.945,34.698c-3.04,0-4.448-2.176-4.448-4.512v-8.927h-1.855v-2.496h1.855v-4.927h3.265v4.927h3.135
			v2.496h-3.135v8.767c0,1.185,0.575,1.888,1.791,1.888h1.344v2.784H200.945z"/>
	</g>
	<g>
		<g>
			<g>
				<path fill="#4BB3D2" d="M23.288,38.461c-4.054,0-7.864-1.578-10.73-4.444c-2.364-2.364-3.85-5.378-4.295-8.714l0.992-0.133
					c0.415,3.117,1.802,5.932,4.01,8.14c2.678,2.677,6.237,4.151,10.023,4.151s7.346-1.475,10.022-4.151
					c2.209-2.208,3.596-5.022,4.01-8.14l0.992,0.133c-0.444,3.336-1.93,6.35-4.295,8.714C31.151,36.883,27.341,38.461,23.288,38.461
					z"/>
			</g>
			<g>
				<path fill="#4BB3D2" d="M9.218,21.652l-0.994-0.114c0.397-3.438,1.896-6.544,4.334-8.981c2.866-2.867,6.677-4.445,10.73-4.445
					c4.053,0,7.863,1.579,10.729,4.445c2.438,2.439,3.938,5.544,4.333,8.981l-0.994,0.114c-0.369-3.21-1.769-6.11-4.046-8.388
					c-2.677-2.678-6.236-4.152-10.022-4.152s-7.346,1.475-10.023,4.152C10.987,15.54,9.588,18.44,9.218,21.652z"/>
			</g>
			<g>
				<path fill="none" stroke="#4BB3D2" stroke-miterlimit="10" d="M8.759,25.236"/>
			</g>
			<g>
				<path fill="none" stroke="#4BB3D2" stroke-miterlimit="10" d="M8.759,25.236"/>
			</g>
		</g>
		<g>
			<g>
				<path fill="#4BB3D2" d="M20.742,42.258c-4.212-0.561-8.017-2.436-11.003-5.422c-7.471-7.471-7.471-19.626,0-27.097
					c2.984-2.985,6.789-4.861,11.003-5.422l0.133,0.991c-3.994,0.533-7.601,2.309-10.429,5.138c-7.08,7.081-7.08,18.601,0,25.683
					c2.829,2.829,6.436,4.606,10.429,5.139L20.742,42.258z"/>
			</g>
			<g>
				<path fill="#4BB3D2" d="M25.497,42.307l-0.115-0.994c4.113-0.475,7.829-2.268,10.746-5.184
					c3.431-3.431,5.319-7.991,5.319-12.842s-1.889-9.411-5.319-12.841c-2.916-2.917-6.632-4.71-10.746-5.185l0.115-0.993
					c4.34,0.5,8.261,2.392,11.338,5.471c3.619,3.619,5.612,8.43,5.612,13.548c0,5.117-1.993,9.93-5.612,13.549
					C33.757,39.914,29.837,41.805,25.497,42.307z"/>
			</g>
			<g>
				<path fill="none" stroke="#4BB3D2" stroke-miterlimit="10" d="M20.809,4.812"/>
			</g>
			<g>
				<path fill="none" stroke="#4BB3D2" stroke-miterlimit="10" d="M20.809,4.812"/>
			</g>
		</g>
		<g>
			<g>
				<path fill="#4BB3D2" d="M4.796,37.404C1.658,33.3,0,28.418,0,23.287C0,10.447,10.446,0,23.287,0
					c5.129,0,10.011,1.659,14.116,4.796l-0.607,0.795C32.866,2.587,28.195,1,23.287,1C10.998,1,1,10.998,1,23.287
					c0,4.91,1.588,9.581,4.591,13.51L4.796,37.404z"/>
			</g>
			<g>
				<path fill="#4BB3D2" d="M23.288,46.574L23.288,46.574c-5.292,0-10.288-1.744-14.447-5.043l0.621-0.783
					c3.981,3.158,8.762,4.826,13.825,4.826c5.953,0,11.551-2.317,15.76-6.527c4.209-4.209,6.527-9.807,6.527-15.76
					c0-5.062-1.669-9.842-4.827-13.825l0.783-0.621c3.3,4.161,5.044,9.156,5.044,14.446c0,6.221-2.422,12.069-6.82,16.467
					C35.356,44.152,29.508,46.574,23.288,46.574z"/>
			</g>
			<g>
				<path fill="none" stroke="#4BB3D2" stroke-miterlimit="10" d="M37.1,5.193"/>
			</g>
			<g>
				<path fill="none" stroke="#4BB3D2" stroke-miterlimit="10" d="M37.1,5.193"/>
			</g>
		</g>
	</g>
</g>
</svg>
