<?xml version="1.0" encoding="utf-8"?>
<!-- Generator: Adobe Illustrator 16.0.0, SVG Export Plug-In . SVG Version: 6.00 Build 0)  -->
<!DOCTYPE svg PUBLIC "-//W3C//DTD SVG 1.1//EN" "http://www.w3.org/Graphics/SVG/1.1/DTD/svg11.dtd">
<svg version="1.1" id="Layer_1" xmlns="http://www.w3.org/2000/svg" xmlns:xlink="http://www.w3.org/1999/xlink" x="0px" y="0px"
	 width="480px" height="480px" viewBox="0 0 480 480" enable-background="new 0 0 480 480" xml:space="preserve">
<g>
	<circle fill="#406DE4" cx="239.5" cy="240.25" r="236.25"/>
	<path fill="#FFFFFF" d="M162.106,300.362c-13.472-17.622-20.591-38.587-20.591-60.622c0-55.143,44.862-100.004,99.996-100.004
		c22.036,0,43.001,7.119,60.628,20.591l-2.617,3.43c-16.866-12.895-36.927-19.71-58.011-19.71
		c-52.759,0-95.684,42.929-95.684,95.693c0,21.08,6.815,41.141,19.706,58.002L162.106,300.362z"/>
	<path fill="#FFFFFF" d="M241.523,339.744c-0.008,0-0.008,0-0.013,0c-22.717,0-44.167-7.484-62.039-21.652l2.678-3.374
		c17.097,13.553,37.625,20.72,59.361,20.72c0,0,0.005,0,0.013,0c25.561,0,49.59-9.954,67.66-28.025
		c18.071-18.071,28.025-42.104,28.025-67.664c0-21.736-7.167-42.264-20.727-59.365l3.376-2.678
		c14.17,17.872,21.656,39.322,21.656,62.043c0,26.708-10.402,51.822-29.288,70.71C293.35,329.338,268.235,339.744,241.523,339.744z"
		/>
	<g>
		<path fill="#FFFFFF" d="M283.661,278.076h-10.267c-3.61,0-6.552-2.938-6.552-6.555v-2.337h-53.207v2.337
			c0,3.617-2.934,6.555-6.546,6.555h-10.272c-3.609,0-6.551-2.938-6.551-6.555v-10.277c-4.122-4.162-6.265-9.585-6.252-15.542
			c0.021-3.866,1.006-7.591,2.82-10.83c-2.05-0.319-3.751-1.898-4.185-3.986l-1.642-7.99c-0.316-1.5,0.067-3.049,1.04-4.244
			c0.925-1.162,2.403-1.87,3.937-1.87h9.657c3.477-8.77,6.981-14.225,10.685-16.671c6.942-4.576,19.626-7.3,33.92-7.3
			c14.297,0,26.978,2.727,33.919,7.3c3.688,2.434,7.284,8.041,10.69,16.671h9.644c1.529,0,2.97,0.674,3.942,1.86
			c0.976,1.205,1.352,2.746,1.042,4.249l-1.647,7.982c-0.44,2.13-2.204,3.73-4.32,4.008c1.927,3.343,2.959,7.208,2.946,11.228
			c-0.029,5.938-2.239,11.355-6.248,15.371v10.041C290.212,275.139,287.272,278.076,283.661,278.076z M209.326,264.873h61.828v6.648
			c0,1.234,1.003,2.244,2.241,2.244h10.267c1.233,0,2.244-1.007,2.244-2.244v-11.91l0.694-0.641
			c3.559-3.259,5.528-7.825,5.554-12.873c0.013-4.475-1.554-8.695-4.412-11.885l-3.227-3.596h8.346c0.374,0,0.686-0.257,0.766-0.614
			l1.646-7.982c0.046-0.228-0.013-0.468-0.159-0.653c-0.142-0.172-0.366-0.274-0.601-0.274h-12.624l-0.525-1.394
			c-3.144-8.314-6.547-13.993-9.563-15.989c-6.177-4.062-18.264-6.588-31.551-6.588c-13.286,0-25.373,2.522-31.545,6.588
			c-2.109,1.394-5.485,5.296-9.565,15.994l-0.53,1.389H185.99c-0.232,0-0.447,0.097-0.578,0.262c-0.168,0.202-0.228,0.441-0.18,0.66
			l1.65,7.996c0.075,0.358,0.387,0.619,0.753,0.619h8.017l-3.091,3.57c-2.702,3.115-4.201,7.208-4.226,11.522
			c-0.009,5.111,1.919,9.709,5.436,12.941l0.698,0.637l0.119,1.044v11.181c0,1.233,1.001,2.245,2.239,2.245h10.272
			c1.233,0,2.235-1.007,2.235-2.245v-6.652H209.326z M272.762,257.608c-5.957,0-10.803-4.846-10.803-10.8
			s4.846-10.794,10.803-10.794c5.963,0,10.806,4.846,10.806,10.794C283.567,252.758,278.725,257.608,272.762,257.608z
			 M272.762,240.326c-3.574,0-6.493,2.909-6.493,6.483c0,3.578,2.919,6.488,6.493,6.488c3.577,0,6.495-2.91,6.495-6.488
			C279.257,243.234,276.339,240.326,272.762,240.326z M207.849,257.608c-5.958,0-10.803-4.846-10.803-10.8
			s4.845-10.794,10.803-10.794c5.948,0,10.789,4.846,10.789,10.794C218.638,252.758,213.796,257.608,207.849,257.608z
			 M207.849,240.326c-3.584,0-6.493,2.909-6.493,6.483c0,3.578,2.909,6.488,6.493,6.488c3.574,0,6.478-2.91,6.478-6.488
			C214.327,243.234,211.417,240.326,207.849,240.326z M278.765,225.688h-77.055l1.053-2.893c3.115-8.563,5.932-13.729,8.378-15.346
			c5.616-3.691,16.49-5.894,29.1-5.894c12.617,0,23.489,2.202,29.089,5.894c2.46,1.621,5.286,6.787,8.383,15.35L278.765,225.688z
			 M207.903,221.376h64.668c-2.575-6.546-4.591-9.653-5.615-10.327c-4.85-3.195-15.089-5.183-26.716-5.183
			c-11.624,0-21.867,1.987-26.725,5.183C212.504,211.719,210.492,214.825,207.903,221.376z"/>
	</g>
</g>
</svg>
