<?xml version="1.0" encoding="utf-8"?>
<!-- Generator: Adobe Illustrator 16.0.0, SVG Export Plug-In . SVG Version: 6.00 Build 0)  -->
<!DOCTYPE svg PUBLIC "-//W3C//DTD SVG 1.1//EN" "http://www.w3.org/Graphics/SVG/1.1/DTD/svg11.dtd">
<svg version="1.1" id="Layer_1" xmlns="http://www.w3.org/2000/svg" xmlns:xlink="http://www.w3.org/1999/xlink" x="0px" y="0px"
	 width="332px" height="257px" viewBox="0 0 332 257" enable-background="new 0 0 332 257" xml:space="preserve">
<rect fill="#4BB3D2" width="332" height="257"/>
<g>
	<g>
		<g>
			<g>
				<path fill="none" stroke="#FFFFFF" stroke-miterlimit="10" d="M120.558,103.141c-5.47-4.18-12.282-6.693-19.7-6.693
					c-17.946,0-32.495,14.55-32.495,32.497c0,7.417,2.513,14.229,6.692,19.698"/>
				<path fill="none" stroke="#FFFFFF" stroke-miterlimit="10" d="M80.698,154.404c5.542,4.395,12.539,7.037,20.159,7.037
					c17.949,0,32.497-14.549,32.497-32.497c0-7.622-2.643-14.615-7.038-20.159"/>
				<path fill="none" stroke="#FFFFFF" stroke-miterlimit="10" d="M120.558,103.141"/>
				<path fill="none" stroke="#FFFFFF" stroke-miterlimit="10" d="M120.558,103.141"/>
			</g>
		</g>
		<g>
			<g>
				<path fill="none" stroke="#FFFFFF" stroke-miterlimit="10" d="M119.211,122.394c-0.188-0.227-0.464-0.358-0.756-0.358h-3.696
					c-0.911-2.408-2.104-4.764-3.452-5.654c-4.673-3.075-17.07-3.075-21.743,0c-1.352,0.891-2.534,3.251-3.451,5.654h-3.697
					c-0.292,0-0.572,0.131-0.753,0.358c-0.184,0.226-0.26,0.524-0.199,0.811l0.548,2.653c0.095,0.452,0.492,0.775,0.951,0.775h1.096
					c-1.058,1.222-1.57,2.754-1.578,4.292c-0.004,1.9,0.715,3.614,2.036,4.828c0.014,0.012,0.026,0.02,0.04,0.033v3.713
					c0,0.803,0.657,1.459,1.458,1.459h3.412c0.805,0,1.458-0.656,1.458-1.459v-1.492h19.102v1.492c0,0.803,0.653,1.459,1.458,1.459
					h3.411c0.803,0,1.459-0.656,1.459-1.459v-3.641c1.399-1.279,2.068-3.041,2.077-4.801c0.004-1.588-0.531-3.181-1.65-4.428h1.167
					c0.463,0,0.86-0.321,0.954-0.774l0.547-2.651C119.467,122.918,119.396,122.622,119.211,122.394z M91.165,118.817
					c3.728-2.451,14.813-2.451,18.537,0c0.722,0.476,1.654,2.395,2.505,4.744H88.659C89.514,121.212,90.443,119.294,91.165,118.817z
					 M86.804,131.292c0-1.586,1.285-2.87,2.872-2.87c1.584,0,2.867,1.284,2.867,2.87c0,1.585-1.283,2.87-2.867,2.87
					C88.089,134.162,86.804,132.877,86.804,131.292z M111.235,134.162c-1.584,0-2.871-1.285-2.871-2.87
					c0-1.586,1.287-2.87,2.871-2.87c1.587,0,2.872,1.284,2.872,2.87C114.107,132.877,112.816,134.162,111.235,134.162z"/>
			</g>
		</g>
	</g>
	<g>
		<path fill="#FFFFFF" d="M154.581,122.874h-1.083v-13.313h-4.25v-0.963h9.604v0.963h-4.271V122.874z"/>
		<path fill="#FFFFFF" d="M165.666,116.297h-3.93v6.577h-1.083v-14.276h5.434c2.325,0,4.091,1.344,4.091,3.83
			c0,2.146-1.283,3.509-3.289,3.85l3.449,6.597h-1.264L165.666,116.297z M165.946,109.561h-4.21v5.774h4.21
			c1.845,0,3.147-0.902,3.147-2.888C169.094,110.462,167.791,109.561,165.946,109.561z"/>
		<path fill="#FFFFFF" d="M179.979,119.405h-6.657l-1.243,3.469h-1.162l5.252-14.276h0.963l5.254,14.276h-1.164L179.979,119.405z
			 M173.662,118.442h5.975l-2.986-8.401L173.662,118.442z"/>
		<path fill="#FFFFFF" d="M184.967,110.462v12.411h-1.082v-14.276h1.082l8.24,12.371v-12.371h1.083v14.276h-1.083L184.967,110.462z"
			/>
		<path fill="#FFFFFF" d="M201.264,122.994c-2.105,0-3.449-0.581-4.752-1.884l0.762-0.762c1.283,1.283,2.346,1.684,4.051,1.684
			c2.266,0,3.669-1.083,3.669-2.947c0-0.862-0.241-1.544-0.782-2.005c-0.541-0.421-0.883-0.602-2.064-0.762l-1.664-0.261
			c-1.084-0.161-1.926-0.501-2.547-1.043c-0.742-0.621-1.123-1.503-1.123-2.626c0-2.406,1.684-3.91,4.432-3.91
			c1.764,0,2.887,0.481,4.109,1.544l-0.701,0.702c-0.842-0.802-1.785-1.323-3.469-1.323c-2.086,0-3.309,1.123-3.309,2.947
			c0,0.822,0.24,1.444,0.742,1.865c0.501,0.421,1.323,0.742,2.125,0.882l1.544,0.241c1.343,0.18,1.965,0.441,2.546,0.942
			c0.783,0.642,1.244,1.625,1.244,2.767C206.076,121.47,204.251,122.994,201.264,122.994z"/>
		<path fill="#FFFFFF" d="M213.691,116.818h-4.15v6.055h-1.082v-14.276h5.232c2.467,0,4.311,1.484,4.311,4.11
			C218.002,115.314,216.158,116.818,213.691,116.818z M213.571,109.561h-4.03v6.295h4.03c1.985,0,3.349-1.002,3.349-3.148
			C216.92,110.563,215.557,109.561,213.571,109.561z"/>
		<path fill="#FFFFFF" d="M228.004,121.53c-0.942,0.942-2.205,1.463-3.569,1.463c-1.363,0-2.626-0.521-3.569-1.463
			c-1.303-1.303-1.322-2.586-1.322-5.794c0-3.228,0.02-4.491,1.322-5.794c0.943-0.942,2.206-1.464,3.569-1.464
			c1.364,0,2.627,0.521,3.569,1.464c1.303,1.303,1.323,2.566,1.323,5.794C229.327,118.944,229.307,120.227,228.004,121.53z
			 M227.142,110.543c-0.722-0.722-1.685-1.103-2.707-1.103s-1.985,0.381-2.706,1.103c-1.023,1.022-1.104,2.145-1.104,5.193
			c0,3.047,0.08,4.17,1.104,5.193c0.721,0.722,1.684,1.103,2.706,1.103s1.985-0.381,2.707-1.103
			c1.022-1.022,1.103-2.146,1.103-5.193C228.244,112.688,228.164,111.565,227.142,110.543z"/>
		<path fill="#FFFFFF" d="M237.183,116.297h-3.93v6.577h-1.083v-14.276h5.434c2.326,0,4.091,1.344,4.091,3.83
			c0,2.146-1.283,3.509-3.288,3.85l3.448,6.597h-1.263L237.183,116.297z M237.463,109.561h-4.21v5.774h4.21
			c1.846,0,3.148-0.902,3.148-2.888C240.611,110.462,239.309,109.561,237.463,109.561z"/>
		<path fill="#FFFFFF" d="M248.066,122.874h-1.082v-13.313h-4.251v-0.963h9.604v0.963h-4.271V122.874z"/>
		<path fill="#FFFFFF" d="M254.139,108.598h8.662v0.963h-7.58v5.634h6.457v0.962h-6.457v5.754h7.58v0.962h-8.662V108.598z"/>
		<path fill="#FFFFFF" d="M159.153,145.242c-0.542,0.541-2.045,1.805-4.391,1.805c-2.626,0-4.431-1.645-4.431-4.07
			c0-2.266,1.604-3.288,3.268-4.431c-0.742-0.902-1.584-1.925-1.584-3.168c0-1.604,1.304-2.847,2.908-2.847s2.907,1.263,2.907,2.867
			c0,1.183-0.742,1.944-1.644,2.566c0,0-0.742,0.521-1.063,0.721l4.09,4.953c0.642-0.963,0.842-1.744,0.842-3.549h1.062
			c0,1.784-0.341,3.229-1.243,4.351l2.045,2.486h-1.383L159.153,145.242z M151.414,142.917c0,1.864,1.343,3.167,3.328,3.167
			c1.143,0,2.366-0.301,3.81-1.584l-4.331-5.232C152.877,140.189,151.414,141.072,151.414,142.917z M154.922,133.493
			c-1.043,0-1.825,0.782-1.825,1.845c0,0.722,0.281,1.303,1.403,2.627l0.321-0.221c0.301-0.181,0.481-0.321,0.501-0.342
			c0.742-0.5,1.443-1.062,1.443-2.004C156.767,134.295,155.965,133.493,154.922,133.493z"/>
		<path fill="#FFFFFF" d="M179.818,135.157l-4.33,9.765h-1.083l-4.411-9.765v11.77h-1.082v-14.275h1.082l4.973,11.007l4.852-11.007
			h1.083v14.275h-1.083V135.157z"/>
		<path fill="#FFFFFF" d="M192.205,145.584c-0.942,0.941-2.205,1.463-3.569,1.463c-1.363,0-2.626-0.521-3.569-1.463
			c-1.303-1.304-1.322-2.587-1.322-5.795c0-3.229,0.02-4.491,1.322-5.795c0.943-0.941,2.206-1.463,3.569-1.463
			c1.364,0,2.627,0.521,3.569,1.463c1.303,1.304,1.323,2.566,1.323,5.795C193.528,142.997,193.508,144.28,192.205,145.584z
			 M191.343,134.596c-0.722-0.722-1.685-1.103-2.707-1.103s-1.985,0.381-2.706,1.103c-1.023,1.023-1.104,2.146-1.104,5.193
			c0,3.047,0.08,4.17,1.104,5.193c0.721,0.721,1.684,1.102,2.706,1.102s1.985-0.381,2.707-1.102
			c1.022-1.023,1.103-2.146,1.103-5.193C192.445,136.741,192.365,135.619,191.343,134.596z"/>
		<path fill="#FFFFFF" d="M198.857,146.927l-4.691-14.275h1.143l4.011,12.37l4.01-12.37h1.144l-4.692,14.275H198.857z"/>
		<path fill="#FFFFFF" d="M205.873,132.651h1.082v14.275h-1.082V132.651z"/>
		<path fill="#FFFFFF" d="M210.362,132.651h1.083v13.313h7.578v0.962h-8.661V132.651z"/>
		<path fill="#FFFFFF" d="M220.825,132.651h1.083v14.275h-1.083V132.651z"/>
		<path fill="#FFFFFF" d="M233.676,145.623c-0.862,0.863-2.065,1.304-3.568,1.304h-4.793v-14.275h4.793
			c1.503,0,2.706,0.44,3.568,1.304c1.443,1.443,1.383,3.709,1.383,5.633C235.059,141.514,235.119,144.18,233.676,145.623z
			 M232.914,134.717c-0.822-0.863-1.925-1.104-3.068-1.104h-3.448v12.352h3.448c1.144,0,2.246-0.241,3.068-1.104
			c1.123-1.183,1.062-3.669,1.062-5.273C233.977,137.984,234.037,135.899,232.914,134.717z"/>
		<path fill="#FFFFFF" d="M244.859,143.458h-6.656l-1.242,3.469h-1.164l5.254-14.275h0.962l5.253,14.275h-1.162L244.859,143.458z
			 M238.544,142.496h5.976l-2.988-8.401L238.544,142.496z"/>
		<path fill="#FFFFFF" d="M257.127,145.623c-0.861,0.863-2.064,1.304-3.568,1.304h-4.792v-14.275h4.792
			c1.504,0,2.707,0.44,3.568,1.304c1.443,1.443,1.384,3.709,1.384,5.633C258.511,141.514,258.57,144.18,257.127,145.623z
			 M256.365,134.717c-0.822-0.863-1.924-1.104-3.067-1.104h-3.448v12.352h3.448c1.144,0,2.245-0.241,3.067-1.104
			c1.123-1.183,1.062-3.669,1.062-5.273C257.428,137.984,257.488,135.899,256.365,134.717z"/>
	</g>
</g>
</svg>
