<?xml version="1.0" encoding="utf-8"?>
<!-- Generator: Adobe Illustrator 16.0.0, SVG Export Plug-In . SVG Version: 6.00 Build 0)  -->
<!DOCTYPE svg PUBLIC "-//W3C//DTD SVG 1.1//EN" "http://www.w3.org/Graphics/SVG/1.1/DTD/svg11.dtd">
<svg version="1.1" id="Layer_1" xmlns="http://www.w3.org/2000/svg" xmlns:xlink="http://www.w3.org/1999/xlink" x="0px" y="0px"
	 width="332px" height="257px" viewBox="0 0 332 257" enable-background="new 0 0 332 257" xml:space="preserve">
<rect x="-0.23" fill="#F6851F" width="332" height="257"/>
<g>
	<g>
		<g>
			<path fill="none" stroke="#FFFFFF" stroke-miterlimit="10" d="M121.404,102.696c-5.473-4.181-12.28-6.693-19.699-6.693
				c-17.948,0-32.497,14.55-32.497,32.497c0,7.417,2.512,14.23,6.692,19.699"/>
			<path fill="none" stroke="#FFFFFF" stroke-miterlimit="10" d="M81.546,153.96c5.54,4.395,12.538,7.037,20.159,7.037
				c17.949,0.001,32.496-14.55,32.496-32.497c0-7.623-2.642-14.615-7.037-20.159"/>
			<path fill="none" stroke="#FFFFFF" stroke-miterlimit="10" d="M121.404,102.696"/>
			<path fill="none" stroke="#FFFFFF" stroke-miterlimit="10" d="M121.404,102.696"/>
		</g>
		<g>
			<g id="iconos_3_">
				<path fill="none" stroke="#FFFFFF" stroke-miterlimit="10" d="M122.272,138.931h-2.086v-2.086h2.086v-2.086h-11.613l-6.228-5.42
					c0.046-0.095,0.091-0.193,0.127-0.296c0.45-1.187,0.41-2.237,1.317-2.298c1.025-0.069,0.975-1.559-0.493-1.516
					c-0.546,0.016-1.172,0.228-1.861,1.246c-0.252,0.375-0.466,0.923-0.819,1.358l-0.706-0.615c-0.263-0.226-0.653-0.226-0.911,0
					l-0.98,0.854c-0.538-0.498-0.774-1.356-0.774-2.296c0-1.062,0.588-2.341,1.651-2.341c1.062,0,1.818,0.213,1.818,0.213v-4.887
					h-0.694v-4.722h-1.393v4.722h-0.693v3.22c-2.09,0.132-2.838,1.739-2.838,4.045c0,1.33,0.248,2.717,1.074,3.653l-5.835,5.079
					h-9.095v2.086h1.393v2.086h-1.393v2.086h38.946V138.931z M99.428,130.505c0.473,0.191,1.032,0.308,1.706,0.308
					c1.115,0,1.851-0.165,2.361-0.447l5.045,4.394H94.539L99.428,130.505z"/>
			</g>
		</g>
	</g>
	<g>
		<path fill="#FFFFFF" d="M159.085,121.125c-0.862,0.862-2.065,1.304-3.569,1.304h-4.792v-14.275h4.792
			c1.504,0,2.707,0.44,3.569,1.303c1.443,1.444,1.384,3.71,1.384,5.635S160.528,119.682,159.085,121.125z M158.323,110.218
			c-0.822-0.861-1.925-1.103-3.068-1.103h-3.448v12.352h3.448c1.144,0,2.246-0.241,3.068-1.104c1.123-1.183,1.062-3.669,1.062-5.272
			C159.386,113.486,159.446,111.401,158.323,110.218z"/>
		<path fill="#FFFFFF" d="M163.312,108.153h8.662v0.962h-7.579v5.635h6.456v0.962h-6.456v5.755h7.579v0.962h-8.662V108.153z"/>
		<path fill="#FFFFFF" d="M177.865,122.549c-2.105,0-3.448-0.581-4.752-1.885l0.762-0.762c1.283,1.283,2.346,1.685,4.051,1.685
			c2.266,0,3.669-1.083,3.669-2.947c0-0.862-0.241-1.544-0.782-2.006c-0.541-0.421-0.882-0.601-2.065-0.762l-1.664-0.261
			c-1.082-0.16-1.925-0.501-2.546-1.042c-0.742-0.622-1.123-1.504-1.123-2.627c0-2.406,1.685-3.909,4.431-3.909
			c1.765,0,2.888,0.48,4.11,1.543l-0.701,0.702c-0.843-0.802-1.784-1.323-3.469-1.323c-2.085,0-3.309,1.123-3.309,2.947
			c0,0.822,0.241,1.443,0.742,1.865c0.501,0.421,1.323,0.741,2.125,0.882l1.544,0.24c1.344,0.181,1.965,0.441,2.547,0.942
			c0.781,0.642,1.242,1.624,1.242,2.768C182.677,121.025,180.853,122.549,177.865,122.549z"/>
		<path fill="#FFFFFF" d="M192.218,118.96h-6.656l-1.243,3.469h-1.163l5.253-14.275h0.963l5.253,14.275h-1.163L192.218,118.96z
			 M185.902,117.998h5.975l-2.987-8.401L185.902,117.998z"/>
		<path fill="#FFFFFF" d="M201.137,115.853h-3.93v6.576h-1.083v-14.275h5.434c2.326,0,4.091,1.343,4.091,3.829
			c0,2.146-1.283,3.509-3.288,3.85l3.448,6.597h-1.263L201.137,115.853z M201.418,109.115h-4.211v5.774h4.211
			c1.845,0,3.147-0.902,3.147-2.887C204.565,110.018,203.263,109.115,201.418,109.115z"/>
		<path fill="#FFFFFF" d="M213.304,115.853h-3.93v6.576h-1.083v-14.275h5.434c2.326,0,4.091,1.343,4.091,3.829
			c0,2.146-1.283,3.509-3.288,3.85l3.448,6.597h-1.263L213.304,115.853z M213.585,109.115h-4.211v5.774h4.211
			c1.845,0,3.147-0.902,3.147-2.887C216.732,110.018,215.43,109.115,213.585,109.115z"/>
		<path fill="#FFFFFF" d="M228.358,121.085c-0.942,0.942-2.206,1.464-3.569,1.464s-2.626-0.521-3.568-1.464
			c-1.304-1.303-1.323-2.586-1.323-5.794c0-3.229,0.02-4.491,1.323-5.795c0.942-0.942,2.205-1.463,3.568-1.463
			s2.627,0.521,3.569,1.463c1.303,1.304,1.323,2.566,1.323,5.795C229.682,118.499,229.661,119.782,228.358,121.085z
			 M227.496,110.098c-0.722-0.722-1.685-1.103-2.707-1.103s-1.984,0.381-2.707,1.103c-1.022,1.022-1.103,2.146-1.103,5.193
			s0.08,4.17,1.103,5.192c0.723,0.723,1.685,1.104,2.707,1.104s1.985-0.381,2.707-1.104c1.022-1.022,1.103-2.145,1.103-5.192
			S228.519,111.12,227.496,110.098z"/>
		<path fill="#FFFFFF" d="M232.524,108.153h1.083v13.313h7.579v0.962h-8.662V108.153z"/>
		<path fill="#FFFFFF" d="M242.988,108.153h1.083v13.313h7.579v0.962h-8.662V108.153z"/>
		<path fill="#FFFFFF" d="M260.83,121.085c-0.942,0.942-2.206,1.464-3.569,1.464s-2.626-0.521-3.568-1.464
			c-1.304-1.303-1.323-2.586-1.323-5.794c0-3.229,0.02-4.491,1.323-5.795c0.942-0.942,2.205-1.463,3.568-1.463
			s2.627,0.521,3.569,1.463c1.303,1.304,1.323,2.566,1.323,5.795C262.153,118.499,262.133,119.782,260.83,121.085z M259.968,110.098
			c-0.722-0.722-1.685-1.103-2.707-1.103s-1.984,0.381-2.707,1.103c-1.022,1.022-1.103,2.146-1.103,5.193s0.08,4.17,1.103,5.192
			c0.723,0.723,1.685,1.104,2.707,1.104s1.985-0.381,2.707-1.104c1.022-1.022,1.103-2.145,1.103-5.192
			S260.99,111.12,259.968,110.098z"/>
		<path fill="#FFFFFF" d="M155.416,146.603c-2.867,0-4.893-1.965-4.893-4.752v-9.644h1.083v9.504c0,2.365,1.504,3.93,3.81,3.93
			s3.81-1.564,3.81-3.93v-9.504h1.082v9.644C160.308,144.638,158.283,146.603,155.416,146.603z"/>
		<path fill="#FFFFFF" d="M168.524,139.906h-3.93v6.576h-1.083v-14.275h5.434c2.326,0,4.091,1.343,4.091,3.829
			c0,2.146-1.283,3.509-3.288,3.85l3.448,6.597h-1.263L168.524,139.906z M168.806,133.169h-4.211v5.774h4.211
			c1.845,0,3.147-0.902,3.147-2.887C171.953,134.071,170.65,133.169,168.806,133.169z"/>
		<path fill="#FFFFFF" d="M181.093,146.482h-5.414v-14.275h5.254c2.365,0,4.13,1.383,4.13,3.729c0,1.503-0.842,2.746-2.226,3.208
			c1.544,0.541,2.446,1.784,2.446,3.448C185.283,145.139,183.599,146.482,181.093,146.482z M180.812,133.169h-4.05v5.534h4.05
			c1.725,0,3.168-0.802,3.168-2.767C183.979,133.971,182.536,133.169,180.812,133.169z M180.973,139.665h-4.211v5.854h4.211
			c1.944,0,3.228-1.082,3.228-2.927S182.917,139.665,180.973,139.665z"/>
		<path fill="#FFFFFF" d="M195.284,143.014h-6.656l-1.243,3.469h-1.163l5.253-14.275h0.963l5.253,14.275h-1.163L195.284,143.014z
			 M188.969,142.052h5.975l-2.987-8.401L188.969,142.052z"/>
		<path fill="#FFFFFF" d="M200.273,134.071v12.411h-1.083v-14.275h1.083l8.24,12.371v-12.371h1.083v14.275h-1.083L200.273,134.071z"
			/>
		<path fill="#FFFFFF" d="M220.902,145.139c-0.942,0.942-2.206,1.464-3.569,1.464s-2.626-0.521-3.568-1.464
			c-1.304-1.303-1.323-2.586-1.323-5.794c0-3.229,0.02-4.491,1.323-5.795c0.942-0.942,2.205-1.463,3.568-1.463
			s2.627,0.521,3.569,1.463c1.303,1.304,1.323,2.566,1.323,5.795C222.226,142.553,222.205,143.836,220.902,145.139z M220.04,134.151
			c-0.722-0.722-1.685-1.103-2.707-1.103s-1.984,0.381-2.707,1.103c-1.022,1.022-1.103,2.146-1.103,5.193s0.08,4.17,1.103,5.192
			c0.723,0.723,1.685,1.104,2.707,1.104s1.985-0.381,2.707-1.104c1.022-1.022,1.103-2.145,1.103-5.192
			S221.062,135.174,220.04,134.151z"/>
	</g>
</g>
</svg>
