<?xml version="1.0" encoding="utf-8"?>
<!-- Generator: Adobe Illustrator 16.0.0, SVG Export Plug-In . SVG Version: 6.00 Build 0)  -->
<!DOCTYPE svg PUBLIC "-//W3C//DTD SVG 1.1//EN" "http://www.w3.org/Graphics/SVG/1.1/DTD/svg11.dtd">
<svg version="1.1" id="Layer_1" xmlns="http://www.w3.org/2000/svg" xmlns:xlink="http://www.w3.org/1999/xlink" x="0px" y="0px"
	 width="46.395px" height="46.895px" viewBox="0 0 46.395 46.895" enable-background="new 0 0 46.395 46.895" xml:space="preserve">
<path fill="#FFFFFF" d="M4.779,37.26C1.652,33.171,0,28.308,0,23.198C0,10.406,10.406,0,23.197,0c5.112,0,9.976,1.651,14.062,4.777
	l-0.607,0.795C32.741,2.581,28.088,1,23.197,1C10.958,1,1,10.958,1,23.198c0,4.89,1.582,9.542,4.573,13.454L4.779,37.26z"/>
<path fill="#FFFFFF" d="M23.199,46.895c-0.001,0-0.001,0-0.003,0c-5.271,0-10.245-1.986-14.388-5.272l0.622-0.658
	c3.963,3.145,8.724,4.932,13.768,4.932c0,0,0.001,0,0.002,0c5.929,0,11.502-2.559,15.694-6.751c4.193-4.191,6.501-9.892,6.501-15.82
	c0-5.042-1.662-9.865-4.808-13.832l0.783-0.652c3.287,4.145,5.023,9.104,5.023,14.375c0,6.196-2.413,12.264-6.794,16.646
	C35.22,44.24,29.395,46.895,23.199,46.895z"/>
<path fill="none" stroke="#51B84C" stroke-miterlimit="10" d="M36.956,5.175"/>
<path fill="none" stroke="#51B84C" stroke-miterlimit="10" d="M36.956,5.175"/>
<path fill="#FFFFFF" d="M17.639,32.373l0.072-0.438c0.395-2.415,1.296-4.331,2.411-5.126c1.434-1.021,2.576-2.217,3.479-3.415
	c-0.971,1.112-2.191,2.274-3.721,3.397c-0.889,0.654-1.566,1.823-1.573,1.835l-0.087,0.15l-0.172-0.028
	c-0.341-0.059-1.25-1.97-1.42-3.874c-0.272-3.043,0.966-7.236,8.411-9.929c1.61-0.583,3.136-2.048,3.15-2.062l0.209-0.203
	l0.169,0.238c0.111,0.157,2.723,3.905,1.964,8.89c-0.319,2.088-2.562,7.509-9.004,7.509h-0.001c-0.427,0-0.87-0.023-1.319-0.071
	c-0.404,0.68-0.678,1.466-0.812,2.34l-0.024,0.163l-0.16,0.041c-0.338,0.087-1.151,0.414-1.159,0.417L17.639,32.373z M26.697,17.059
	l0.487,0.112c-0.014,0.062-1.427,6.238-6.771,10.046c-0.93,0.661-1.729,2.311-2.13,4.362c0.205-0.078,0.45-0.168,0.645-0.229
	c0.163-0.936,0.479-1.777,0.938-2.506l0.084-0.133l0.156,0.019c0.484,0.059,0.962,0.087,1.421,0.087
	c6.092,0,8.208-5.113,8.511-7.084c0.621-4.085-1.172-7.389-1.723-8.284c-0.497,0.441-1.75,1.478-3.105,1.968
	c-4.489,1.624-7.147,3.967-7.9,6.966c-0.643,2.559,0.328,4.875,0.771,5.666c0.28-0.424,0.828-1.162,1.503-1.659
	C25.423,22.097,26.685,17.108,26.697,17.059z"/>
</svg>
