<?xml version="1.0" encoding="utf-8"?>
<!-- Generator: Adobe Illustrator 16.0.0, SVG Export Plug-In . SVG Version: 6.00 Build 0)  -->
<!DOCTYPE svg PUBLIC "-//W3C//DTD SVG 1.1//EN" "http://www.w3.org/Graphics/SVG/1.1/DTD/svg11.dtd">
<svg version="1.1" id="Layer_1" xmlns="http://www.w3.org/2000/svg" xmlns:xlink="http://www.w3.org/1999/xlink" x="0px" y="0px"
	 width="46.395px" height="46.52px" viewBox="0 0 46.395 46.52" enable-background="new 0 0 46.395 46.52" xml:space="preserve">
<g>
	<g>
		<path d="M40.766,15.21l-8.853-8.868c-0.424-0.424-0.987-0.658-1.587-0.658c-0.473,0-0.934,0.15-1.314,0.426L28.766,6.25
			L17.374,7.816c-0.26,0.01-0.515,0.052-0.754,0.122l-0.399-0.376c-0.018-0.016-0.035-0.031-0.05-0.044
			c-0.407-0.351-0.926-0.544-1.462-0.544c-0.6,0-1.163,0.235-1.587,0.658l-8.852,8.868c-0.791,0.791-0.872,2.062-0.191,2.95
			c0.023,0.031,0.048,0.06,0.073,0.088l3.798,4.24c0.124,0.512,0.292,1.042,0.501,1.584c-0.92,1.109-0.862,2.763,0.176,3.804
			c0.002,0.002,0.004,0.004,0.008,0.006l0.012,0.012c0.521,0.52,1.209,0.811,1.944,0.822c-0.014,0.113-0.023,0.228-0.023,0.345
			c0,0.755,0.293,1.463,0.824,1.997l0.012,0.014c0.002,0.002,0.004,0.004,0.006,0.006c0.534,0.532,1.244,0.827,2,0.827
			c0.087,0,0.173-0.004,0.26-0.016c0.008,0.012,0.017,0.021,0.025,0.031c0,0.038-0.004,0.077-0.004,0.115
			c0,0.753,0.292,1.463,0.826,1.999l0.011,0.012l0.004,0.006c0.536,0.532,1.244,0.827,1.999,0.827c0.002,0,0.006,0,0.008,0
			l0.27,0.269c0.031,0.707,0.318,1.369,0.822,1.873c0.002,0.004,0.006,0.006,0.01,0.009l0.009,0.01
			c0.503,0.5,1.162,0.785,1.868,0.816l0.744,0.746c0.61,0.608,1.42,0.945,2.286,0.945c0.993,0,1.917-0.449,2.533-1.227
			c0.335-0.427,0.548-0.91,0.638-1.416l0.467,0.469c0.618,0.617,1.473,0.973,2.342,0.973c0.72,0,1.422-0.243,1.981-0.686
			c0.619-0.489,1.034-1.189,1.177-1.958c0.598,0.512,1.368,0.801,2.155,0.801c0.717,0,1.421-0.243,1.98-0.687
			c0.722-0.573,1.167-1.428,1.222-2.346c0.048-0.856-0.241-1.691-0.803-2.33c0.519-0.091,1.011-0.307,1.424-0.633
			c0.723-0.573,1.167-1.432,1.221-2.348c0.054-0.922-0.287-1.823-0.938-2.474l-1.202-1.197c0.045-0.045,0.087-0.093,0.126-0.139
			c2.247-2.865,3.457-4.997,3.904-6.883c0.035-0.06,0.065-0.124,0.093-0.191l0.247-0.625C41.622,17.068,41.493,15.937,40.766,15.21
			L40.766,15.21z M10.64,28.48c-0.332,0-0.665-0.125-0.918-0.378l-0.014-0.016c-0.509-0.509-0.509-1.333,0-1.84l1.017-1.019
			c0.255-0.253,0.586-0.38,0.92-0.38c0.332,0,0.666,0.127,0.918,0.38l0.014,0.016c0.509,0.507,0.509,1.331,0,1.838l-1.017,1.021
			C11.306,28.353,10.974,28.48,10.64,28.48L10.64,28.48z M14.328,31.282c-0.254,0.255-0.586,0.381-0.92,0.381
			c-0.336,0-0.667-0.126-0.922-0.381l-0.013-0.013c-0.508-0.51-0.508-1.331,0-1.841l2.407-2.407c0.253-0.253,0.588-0.38,0.922-0.38
			c0.334,0,0.666,0.127,0.92,0.38l0.013,0.014c0.508,0.509,0.508,1.331,0,1.84L14.328,31.282z M17.449,34.255
			c-0.254,0.253-0.588,0.379-0.922,0.379s-0.666-0.126-0.92-0.379l-0.014-0.017c-0.507-0.508-0.507-1.331,0-1.839l1.559-1.559
			c0.253-0.253,0.586-0.38,0.918-0.38c0.332,0,0.666,0.127,0.92,0.38l0.015,0.014c0.508,0.509,0.508,1.333,0,1.842L17.449,34.255z
			 M19.641,37.619c-0.333,0-0.666-0.125-0.92-0.38l-0.014-0.014c-0.507-0.507-0.507-1.333,0-1.84l0.706-0.708
			c0.257-0.255,0.588-0.38,0.922-0.38c0.332,0,0.666,0.125,0.92,0.38l0.014,0.014c0.507,0.509,0.507,1.333,0,1.84l-0.71,0.708
			C20.306,37.492,19.973,37.619,19.641,37.619L19.641,37.619z M23.881,38.656c-0.342,0.431-0.841,0.646-1.341,0.646
			c-0.436,0-0.872-0.166-1.204-0.496l-0.131-0.133c0.154-0.103,0.301-0.22,0.434-0.355l0.708-0.708
			c0.498-0.499,0.77-1.138,0.818-1.792l0.544,0.542C24.326,36.978,24.421,37.971,23.881,38.656L23.881,38.656z M36.862,28.052
			c0.708,0.708,0.658,1.901-0.148,2.542c-0.305,0.239-0.668,0.355-1.032,0.355c-0.457,0-0.92-0.182-1.264-0.527l-6.175-6.173
			c-0.16-0.162-0.372-0.243-0.58-0.243c-0.211,0-0.421,0.081-0.581,0.243c-0.324,0.324-0.324,0.851,0,1.175l7.938,7.94
			c0.709,0.706,0.659,1.901-0.151,2.542c-0.301,0.239-0.665,0.355-1.029,0.355c-0.458,0-0.919-0.182-1.264-0.525l-7.901-7.9
			c-0.162-0.164-0.374-0.245-0.589-0.245c-0.212,0-0.426,0.081-0.588,0.245c-0.32,0.317-0.32,0.839,0,1.159l6.213,6.211
			c0.708,0.71,0.66,1.902-0.15,2.543c-0.303,0.239-0.665,0.354-1.032,0.354c-0.455,0-0.918-0.182-1.261-0.526l-6.42-6.418
			c-0.112-0.508-0.365-0.987-0.756-1.381l-0.014-0.014c-0.446-0.442-1.009-0.718-1.619-0.799c0.122-0.318,0.188-0.658,0.188-1.009
			c0-0.756-0.293-1.466-0.828-2l-0.004-0.004l-0.012-0.012c-0.534-0.534-1.242-0.826-1.997-0.826c-0.498,0-0.978,0.13-1.398,0.371
			c-0.122-0.494-0.372-0.947-0.739-1.318l-0.008-0.01c-0.004-0.003-0.009-0.007-0.011-0.009c-0.535-0.536-1.245-0.83-1.999-0.83
			c-0.756,0-1.466,0.294-2,0.83l-0.004,0.004c-0.099-0.308-0.184-0.614-0.247-0.911c-0.023-0.107-0.067-0.206-0.133-0.289
			l-3.972-4.435c-0.218-0.284-0.191-0.685,0.062-0.939l8.852-8.868c0.141-0.139,0.324-0.208,0.505-0.208
			c0.166,0,0.332,0.056,0.467,0.172l0.071,0.067c-0.592,0.583-0.962,1.393-0.962,2.286c0,1.771,1.437,3.208,3.202,3.214l5.641,0.071
			L36.862,28.052z M39.747,17.23l-0.305,0.766c-0.065,0.084-0.112,0.183-0.133,0.289c-0.431,1.976-1.944,4.238-3.646,6.403
			c-2.162-2.163-11.893-11.895-11.893-11.895l-6.277-0.079c-0.928,0-1.686-0.758-1.686-1.688c0-0.926,0.758-1.684,1.686-1.684
			l11.769-1.621c0.002,0,0.002,0,0.004-0.001l0.591-0.336c0.135-0.116,0.301-0.174,0.467-0.174c0.183,0,0.368,0.072,0.505,0.21
			l8.854,8.866C39.939,16.541,39.965,16.945,39.747,17.23L39.747,17.23z"/>
	</g>
</g>
</svg>
